<?xml version="1.0" standalone="no"?>
<!DOCTYPE svg PUBLIC "-//W3C//DTD SVG 1.1//EN" "http://www.w3.org/Graphics/SVG/1.1/DTD/svg11.dtd" >
<svg xmlns="http://www.w3.org/2000/svg" xmlns:xlink="http://www.w3.org/1999/xlink" version="1.1">
<metadata></metadata>
<defs>
<font id="nescafe_sansregular" horiz-adv-x="1116" >
<font-face units-per-em="2048" ascent="1536" descent="-512" />
<missing-glyph horiz-adv-x="559" />
<glyph unicode="fb" horiz-adv-x="2084" d="M84 940v143h162v54q0 139 15.5 209.5t55.5 111.5q41 41 100.5 59.5t151.5 18.5q131 0 205 -29v-141q-71 23 -164 23q-105 0 -151 -43q-21 -21 -29 -65t-8 -144v-54h305v-143h-305v-940h-176v940h-162zM961 0v1505h176v-561q74 83 174.5 126.5t212.5 43.5q218 0 321 -106 q118 -115 121 -465q-3 -352 -121 -467q-104 -107 -321 -107q-112 0 -212.5 43.5t-174.5 126.5v-139h-176zM1137 254q170 -131 340 -131q161 0 235 74q76 76 76 346q0 268 -76 344t-235 76q-165 0 -340 -132v-577z" />
<glyph unicode="fh" horiz-adv-x="2072" d="M84 940v143h162v54q0 139 15.5 209.5t55.5 111.5q41 41 100.5 59.5t151.5 18.5q131 0 205 -29v-141q-71 23 -164 23q-105 0 -151 -43q-21 -21 -29 -65t-8 -144v-54h305v-143h-305v-940h-176v940h-162zM961 0v1505h176v-573q76 82 189 132t228 50q185 0 275 -90 q40 -40 62 -99t22 -163v-762h-176v694q0 163 -47 213q-30 30 -73.5 43t-117.5 13q-81 0 -177.5 -37.5t-184.5 -102.5v-823h-176z" />
<glyph unicode="fj" horiz-adv-x="1269" d="M84 940v143h162v54q0 139 15.5 209.5t55.5 111.5q41 41 100.5 59.5t151.5 18.5q131 0 205 -29v-141q-71 23 -164 23q-105 0 -151 -43q-21 -21 -29 -65t-8 -144v-54h305v-143h-305v-940h-176v940h-162zM631 -262q85 -29 147 -29q76 0 109 33q20 23 26.5 71.5t6.5 174.5 v1095h176v-1095q0 -153 -16 -228t-56 -120q-61 -70 -209 -70q-83 0 -184 33v135zM909 1442q0 49 23 71.5t78 22.5q54 0 75 -22.5t21 -71.5q0 -48 -21.5 -71t-74.5 -23q-55 0 -78 23t-23 71z" />
<glyph unicode="fk" horiz-adv-x="1929" d="M84 940v143h162v54q0 139 15.5 209.5t55.5 111.5q41 41 100.5 59.5t151.5 18.5q131 0 205 -29v-141q-71 23 -164 23q-105 0 -151 -43q-21 -21 -29 -65t-8 -144v-54h305v-143h-305v-940h-176v940h-162zM961 0v1505h176v-862l522 440h215l-576 -489l584 -594h-219l-526 537 v-537h-176z" />
<glyph unicode="ffb" horiz-adv-x="2830" d="M84 940v143h162v54q0 139 15.5 209.5t55.5 111.5q41 41 100.5 59.5t151.5 18.5q131 0 205 -29v-141q-71 23 -164 23q-105 0 -151 -43q-21 -21 -29 -65t-8 -144v-54h278v-143h-278v-940h-176v940h-162zM844 940v143h147v54q0 139 16 209t56 112q78 78 254 78 q129 0 203 -29v-141q-67 23 -164 23q-106 0 -152 -43q-21 -21 -29 -65t-8 -144v-54h308v-143h-308v-940h-176v940h-147zM1708 0v1505h174v-561q76 84 175.5 127t211.5 43q219 0 322 -106q118 -115 121 -465q-3 -354 -119 -467q-107 -107 -324 -107q-112 0 -211.5 43 t-175.5 127v-139h-174zM1882 254q170 -131 342 -131q160 0 234 74q77 74 77 346q0 270 -77 344q-76 76 -234 76q-166 0 -342 -132v-577z" />
<glyph unicode="ffh" horiz-adv-x="2820" d="M84 940v143h162v54q0 139 15.5 209.5t55.5 111.5q41 41 100.5 59.5t151.5 18.5q131 0 205 -29v-141q-71 23 -164 23q-105 0 -151 -43q-21 -21 -29 -65t-8 -144v-54h278v-143h-278v-940h-176v940h-162zM844 940v143h147v54q0 139 16 209t56 112q78 78 254 78 q129 0 203 -29v-141q-67 23 -164 23q-106 0 -152 -43q-21 -21 -29 -65t-8 -144v-54h308v-143h-308v-940h-176v940h-147zM1708 0v1505h176v-573q76 82 189 132t229 50q184 0 274 -90q40 -40 61 -99t21 -163v-762h-174v694q0 164 -49 213q-53 56 -188 56q-83 0 -180 -37 t-183 -101v-825h-176z" />
<glyph unicode="ffj" horiz-adv-x="2015" d="M84 940v143h162v54q0 139 15.5 209.5t55.5 111.5q41 41 100.5 59.5t151.5 18.5q131 0 205 -29v-141q-71 23 -164 23q-105 0 -151 -43q-21 -21 -29 -65t-8 -144v-54h278v-143h-278v-940h-176v940h-162zM844 940v143h147v54q0 139 16 209t56 112q78 78 254 78 q129 0 203 -29v-141q-67 23 -164 23q-106 0 -152 -43q-21 -21 -29 -65t-8 -144v-54h308v-143h-308v-940h-176v940h-147zM1376 -262q85 -29 148 -29q75 0 108 33q22 23 28.5 71t6.5 175v1095h174v-1095q0 -155 -15.5 -229.5t-56.5 -118.5q-61 -70 -208 -70q-84 0 -185 33v135 zM1655 1442q0 49 22.5 71.5t77.5 22.5q54 0 76 -22.5t22 -71.5q0 -48 -22 -71t-76 -23q-55 0 -77.5 23t-22.5 71z" />
<glyph unicode="ffk" horiz-adv-x="2676" d="M84 940v143h162v54q0 139 15.5 209.5t55.5 111.5q41 41 100.5 59.5t151.5 18.5q131 0 205 -29v-141q-71 23 -164 23q-105 0 -151 -43q-21 -21 -29 -65t-8 -144v-54h278v-143h-278v-940h-176v940h-162zM842 940v143h149v54q0 139 16 209t56 112q78 78 254 78 q129 0 203 -29v-141q-67 23 -164 23q-106 0 -152 -43q-21 -21 -29 -65t-8 -144v-54h308v-143h-308v-940h-176v940h-149zM1708 0v1505h174v-864l522 442h215l-575 -489l584 -594h-220l-526 537v-537h-174z" />
<glyph horiz-adv-x="0" />
<glyph horiz-adv-x="682" />
<glyph unicode=" "  horiz-adv-x="559" />
<glyph unicode="&#x09;" horiz-adv-x="559" />
<glyph unicode="&#xa0;" horiz-adv-x="559" />
<glyph unicode="!" horiz-adv-x="559" d="M174 94q0 58 25.5 84.5t79.5 26.5q56 0 81 -26.5t25 -84.5q0 -56 -25.5 -82t-80.5 -26q-54 0 -79.5 26t-25.5 82zM186 1434h185l-21 -988h-143z" />
<glyph unicode="&#x22;" horiz-adv-x="890" d="M203 1434h155l-20 -488h-113zM535 1434h155l-20 -488h-113z" />
<glyph unicode="#" d="M123 305v127h160l43 219h-203v127h227l62 305h131l-60 -305h246l59 305h134l-62 -305h135v-127h-159l-43 -219h202v-127h-227l-61 -305h-132l60 305h-246l-59 -305h-133l61 305h-135zM414 432h245l46 219h-246z" />
<glyph unicode="$" d="M89.5 962.5q-16.5 107.5 0 214.5t60.5 152q105 113 356 123v166h141v-166q192 -11 328 -70v-145q-156 53 -328 59v-508q129 -37 206.5 -67t109.5 -66q48 -53 64.5 -167.5t-3 -226t-66.5 -161.5q-94 -102 -331 -116v-162h-140v158q-236 9 -391 77v146q209 -63 391 -68v527 q-271 73 -337 147q-44 46 -60.5 153.5zM260 1074.5q0 -110.5 35 -150.5q41 -44 211 -95v467q-154 -13 -211 -73q-35 -38 -35 -148.5zM627 139q141 16 190 68q40 44 41 168t-39 168q-29 31 -192 80v-484z" />
<glyph unicode="%" horiz-adv-x="1728" d="M35 1024q0 135 17 223.5t65 136.5q35 33 96.5 50.5t126.5 17.5q66 0 128 -17.5t97 -50.5q48 -48 65 -136.5t17 -223.5q0 -155 -16.5 -252.5t-67.5 -148.5q-33 -33 -94.5 -49.5t-128.5 -16.5q-66 0 -127 16.5t-96 49.5q-49 51 -65.5 148.5t-16.5 252.5zM168 1024 q0 -274 51 -322q33 -38 121 -38q87 0 123 36q51 51 51 324q0 228 -51 276q-37 37 -123 37q-87 0 -121 -37q-51 -48 -51 -276zM344 0l891 1434h147l-890 -1434h-148zM1081 451q0 135 17 223.5t65 136.5q35 33 96.5 50.5t126.5 17.5q66 0 128.5 -17.5t97.5 -50.5 q48 -48 65 -136.5t17 -223.5q0 -155 -16.5 -253t-67.5 -149q-65 -65 -224 -65q-155 0 -223 65q-49 51 -65.5 149t-16.5 253zM1214 451q0 -273 52 -322q34 -39 120 -39t123 37q52 52 52 324q0 227 -52 276q-37 37 -123 37t-120 -37q-52 -49 -52 -276z" />
<glyph unicode="&#x26;" horiz-adv-x="1327" d="M78 358q0 175 92 271q59 56 166 102l-29 31q-91 93 -122 169t-31 183q0 168 88 256q91 88 297 88q204 0 295 -88q79 -82 79 -235q0 -179 -90 -269q-46 -46 -99 -80.5t-146 -80.5l313 -314q96 165 176 367h168q-123 -292 -234 -475l281 -283h-221l-152 154 q-25 -32 -45 -52q-133 -133 -358 -133q-117 0 -196.5 23.5t-135.5 79.5q-51 52 -73.5 119.5t-22.5 166.5zM252 375q0 -138 63 -201t209 -63q73 0 129.5 22t110.5 74q25 25 43 51l-381 383q-77 -36 -100 -59q-74 -74 -74 -207zM326 1104q0 -80 22.5 -134.5t97.5 -131.5 l41 -41q144 69 199 127q64 61 64 182q0 109 -48 160q-28 28 -65 39.5t-98 11.5q-63 0 -101 -12t-67 -41q-45 -45 -45 -160z" />
<glyph unicode="'" horiz-adv-x="559" d="M203 1434h155l-20 -488h-113z" />
<glyph unicode="(" horiz-adv-x="798" d="M180 588q0 493 318 846h151q-152 -185 -233.5 -388.5t-81.5 -457.5q0 -480 315 -864h-151q-149 166 -233.5 384.5t-84.5 479.5z" />
<glyph unicode=")" horiz-adv-x="798" d="M147 -276q153 185 235.5 388t82.5 457q0 481 -318 865h154q315 -354 315 -865q0 -491 -315 -845h-154z" />
<glyph unicode="*" horiz-adv-x="643" d="M23 1174l34 106l226 -92l-15 246h111l-14 -246l227 92l33 -106l-238 -60l158 -190l-88 -66l-133 209l-131 -209l-89 66l156 190z" />
<glyph unicode="+" horiz-adv-x="1118" d="M141 477v129h353v355h129v-355h354v-129h-354v-352h-129v352h-353z" />
<glyph unicode="," horiz-adv-x="559" d="M109 -231l129 432h182l-168 -432h-143z" />
<glyph unicode="-" horiz-adv-x="559" d="M53 489v125h451v-125h-451z" />
<glyph unicode="." horiz-adv-x="559" d="M174 94q0 58 25.5 84.5t79.5 26.5q56 0 81 -26.5t25 -84.5q0 -56 -25.5 -82t-80.5 -26q-54 0 -79.5 26t-25.5 82z" />
<glyph unicode="/" horiz-adv-x="905" d="M25 -276l710 1781h146l-711 -1781h-145z" />
<glyph unicode="0" horiz-adv-x="1114" d="M61 758q0 223 28.5 370t105.5 226q55 55 153.5 82.5t208.5 27.5q108 0 207.5 -28t155.5 -82q78 -78 106.5 -225t28.5 -371q0 -127 -4.5 -217.5t-18 -184.5t-41.5 -163t-71 -113q-55 -54 -154.5 -81.5t-208.5 -27.5t-208 27.5t-154 81.5q-81 83 -107.5 248t-26.5 430z M246 758q0 -480 90 -570q70 -67 221 -67q152 0 219 67q92 89 92 570q0 397 -92 489q-66 66 -219 66q-152 0 -221 -66q-90 -93 -90 -489z" />
<glyph unicode="1" d="M172 885v209l453 340h147v-1434h-182v1200z" />
<glyph unicode="2" horiz-adv-x="1118" d="M96 0v119l479 483q102 106 151.5 180.5t63 131t13.5 145.5q0 75 -16.5 117t-47.5 73q-64 64 -266 64q-147 0 -352 -64v150q165 65 375 65q291 0 399 -108q51 -51 70.5 -115.5t19.5 -169.5q0 -88 -11.5 -151.5t-45.5 -128.5t-82.5 -124.5t-134.5 -148.5l-369 -368h655 v-150h-901z" />
<glyph unicode="3" d="M96 1284v150h891v-119l-500 -504q331 -17 431 -117q106 -109 106 -293q0 -109 -24.5 -182t-81.5 -131q-119 -119 -445 -119q-221 0 -364 58v147q165 -53 362 -53q225 0 305 80q66 66 66 200q0 117 -66 183q-46 46 -171 67t-361 21v121l499 491h-647z" />
<glyph unicode="4" d="M43 375v119l696 940h156v-910h192v-149h-192v-375h-180v375h-672zM250 524h465v639z" />
<glyph unicode="5" d="M119 27v147q168 -53 364 -53q211 0 291 80q68 68 68 202q0 119 -66 185q-49 49 -187 68.5t-417 19.5v758h791v-150h-621v-457q253 -4 385.5 -33.5t196.5 -93.5q100 -103 100 -297q0 -110 -24.5 -183.5t-81.5 -131.5q-119 -119 -435 -119q-218 0 -364 58z" />
<glyph unicode="6" d="M82 440v2q0 144 50 271t198 297l354 424h217l-442 -516q-3 -4 -9.5 -11.5t-9.5 -11.5q55 12 119 12q250 0 359 -112q116 -116 116 -355q0 -242 -116 -358q-110 -113 -359 -113q-250 0 -360 113q-117 117 -117 358zM270 444q0 -185 74 -256q69 -69 215 -69q144 0 213 69 q74 71 74 256q0 178 -76 254q-67 70 -211 70q-146 0 -213 -70q-76 -76 -76 -254z" />
<glyph unicode="7" d="M98 1284v150h926v-119l-717 -1315h-201l705 1284h-713z" />
<glyph unicode="8" d="M78 375q0 180 96 276q61 61 170 82q-93 21 -147 78q-88 88 -88 268q0 185 96 281q104 104 354 104q245 0 352 -104q97 -97 97 -281q0 -180 -88 -268q-53 -56 -146 -78q111 -22 168 -82q96 -93 96 -276q0 -189 -104 -293q-110 -113 -375 -113q-267 0 -377 113 q-104 104 -104 293zM266 391q0 -137 70 -207q62 -65 223 -65q156 0 221 65q70 70 70 207q0 135 -70 205q-66 66 -221 66q-157 0 -223 -66q-70 -70 -70 -205zM297 1055q0 -139 61 -197q56 -59 201 -59q142 0 201 59t59 197q0 141 -59 200q-60 60 -201 60q-144 0 -201 -60 q-61 -58 -61 -200z" />
<glyph unicode="9" d="M82 993q0 242 117 359q109 112 360 112q250 0 359 -112q116 -116 116 -359v-2q0 -94 -17 -170t-73.5 -178t-157.5 -219l-354 -424h-217l442 516q3 4 9.5 11.5t9.5 11.5q-60 -13 -117 -13q-250 0 -360 113q-117 117 -117 354zM270 989q0 -178 76 -254q66 -69 213 -69 q145 0 211 69q76 76 76 254q0 182 -74 256q-70 70 -213 70q-145 0 -215 -70q-74 -74 -74 -256z" />
<glyph unicode=":" horiz-adv-x="561" d="M174 94q0 58 25.5 84.5t79.5 26.5q56 0 81 -26.5t25 -84.5q0 -56 -25.5 -82t-80.5 -26q-54 0 -79.5 26t-25.5 82zM174 860q0 58 25.5 84.5t79.5 26.5q56 0 81 -26.5t25 -84.5q0 -56 -25.5 -82t-80.5 -26q-54 0 -79.5 26t-25.5 82z" />
<glyph unicode=";" horiz-adv-x="561" d="M84 -231l129 432h180l-168 -432h-141zM193 860q0 58 25 84.5t79 26.5q56 0 81 -26.5t25 -84.5q0 -56 -25.5 -82t-80.5 -26q-54 0 -79 26t-25 82z" />
<glyph unicode="&#x3c;" horiz-adv-x="1118" d="M133 475v137l844 349v-138l-694 -278l694 -281v-137z" />
<glyph unicode="=" horiz-adv-x="1118" d="M141 305v129h836v-129h-836zM141 651v129h836v-129h-836z" />
<glyph unicode="&#x3e;" horiz-adv-x="1118" d="M133 127v137l692 281l-692 278v138l844 -349v-137z" />
<glyph unicode="?" horiz-adv-x="983" d="M74 1282v143q160 39 348 39q244 0 346 -102q44 -44 69 -117.5t25 -165.5q0 -88 -24 -167t-66 -121q-33 -33 -58 -51t-109 -52.5t-222 -71.5l-2 -188h-150v293q147 36 238.5 69t121 51.5t54.5 43.5q25 26 41 80t16 112q0 121 -63 180q-59 62 -233 62q-144 0 -332 -37z M203 94q0 58 25 84.5t79 26.5q55 0 81 -26.5t26 -84.5q0 -56 -26 -82t-81 -26q-54 0 -79 25.5t-25 82.5z" />
<glyph unicode="@" horiz-adv-x="1974" d="M133 573q0 234 66 407.5t172 279.5q204 204 628 204q423 0 627 -204q217 -221 217 -549q0 -171 -42 -300t-109 -200q-102 -105 -258 -105q-62 0 -113.5 13.5t-95 49.5t-60.5 93q-71 -68 -163 -112t-179 -44q-79 0 -140 28t-93 81q-73 115 -21 360q26 126 67 220t85 133 q97 92 262 92q80 0 156 -34.5t121 -92.5l20 102h150l-123 -581q-24 -108 16.5 -157.5t118.5 -49.5q109 0 182 82q45 51 75 167t30 255q0 153 -51 276.5t-130 202.5q-86 86 -234 130t-315 44t-315.5 -44t-234.5 -130q-85 -85 -143 -249.5t-58 -367.5q0 -205 54 -367.5 t138 -246.5q86 -86 237.5 -131t336.5 -45q329 0 569 92v-92q-247 -100 -563 -100q-456 0 -660 204q-103 103 -164.5 276t-62.5 410zM698 390q2 -71 25 -99q45 -58 147 -58q119 0 285 121q4 48 10 72l76 373q-105 92 -231 92q-115 0 -176 -55q-71 -67 -115 -261 q-23 -114 -21 -185z" />
<glyph unicode="A" horiz-adv-x="1482" d="M96 0q84 373 231.5 756.5t309.5 677.5h209q162 -296 309 -679t231 -755h-192q-47 218 -129 471h-655q-82 -253 -129 -471h-185zM461 625h551q-146 414 -275 649q-132 -240 -276 -649z" />
<glyph unicode="B" horiz-adv-x="1499" d="M229 0v1434h582q131 0 241.5 -24.5t161.5 -74.5q91 -94 91 -258q0 -98 -22 -155.5t-62 -98.5q-59 -59 -183 -88q147 -26 213 -92q84 -84 84 -266q0 -176 -92 -268q-109 -109 -469 -109h-545zM414 156h362q247 0 320 73q31 29 42 69.5t11 104.5q0 74 -12 117t-41 72 q-70 67 -332 67h-350v-503zM414 797h325q259 0 328 69q53 53 53 178q0 113 -55 168q-66 66 -313 66h-338v-481z" />
<glyph unicode="C" horiz-adv-x="1357" d="M150 715q0 218 34 365.5t121 234.5q70 70 208.5 109.5t285.5 39.5q226 0 389 -69v-146q-194 60 -371 60q-257 0 -362 -105q-115 -115 -115 -487q0 -189 27.5 -308.5t87.5 -179.5q47 -50 141 -77t221 -27q203 0 393 59v-145q-165 -70 -411 -70q-148 0 -286 39t-208 109 q-87 85 -121 233t-34 365z" />
<glyph unicode="D" horiz-adv-x="1574" d="M229 0v1434h547q160 0 294.5 -40.5t207.5 -115.5q81 -80 114 -216t33 -347q0 -210 -32.5 -343.5t-114.5 -215.5q-73 -75 -207.5 -115.5t-294.5 -40.5h-547zM414 156h342q272 0 370 98q61 61 85 166.5t24 294.5t-24 296.5t-85 168.5q-98 98 -370 98h-342v-1122z" />
<glyph unicode="E" horiz-adv-x="1386" d="M229 0v1434h992v-156h-807v-473h741v-154h-741v-495h807v-156h-992z" />
<glyph unicode="F" horiz-adv-x="1277" d="M229 0v1434h959v-156h-774v-492h706v-153h-706v-633h-185z" />
<glyph unicode="G" horiz-adv-x="1507" d="M150 715q0 216 35 364.5t122 235.5q72 72 220 110.5t309 38.5q272 0 452 -80v-145q-213 70 -434 70q-292 0 -397 -105q-62 -62 -89.5 -180.5t-27.5 -306.5q0 -371 117 -488q101 -101 397 -104q135 0 270 29v415h-368v156h555v-694q-177 -62 -475 -62q-161 0 -308.5 37.5 t-220.5 110.5q-87 87 -122 235t-35 363z" />
<glyph unicode="H" horiz-adv-x="1644" d="M229 0v1434h185v-629h817v629h186v-1434h-186v651h-817v-651h-185z" />
<glyph unicode="I" horiz-adv-x="661" d="M238 0v1434h186v-1434h-186z" />
<glyph unicode="J" horiz-adv-x="1130" d="M86 39v145q163 -57 317 -57q184 0 256 72q40 40 53 102.5t13 179.5v953h186v-942q0 -157 -23.5 -251.5t-82.5 -152.5q-116 -119 -369 -119q-191 0 -350 70z" />
<glyph unicode="K" horiz-adv-x="1445" d="M229 0v1434h185v-678l731 678h229l-782 -721l764 -713h-234l-708 655v-655h-185z" />
<glyph unicode="L" horiz-adv-x="1241" d="M229 0v1434h185v-1278h764v-156h-949z" />
<glyph unicode="M" horiz-adv-x="1810" d="M229 0v1434h150l530 -709l521 709h151v-1434h-184v1106l-492 -662l-502 666v-1110h-174z" />
<glyph unicode="N" horiz-adv-x="1648" d="M229 0v1434h150l862 -1102v1102h176v-1434h-151l-863 1100v-1100h-174z" />
<glyph unicode="O" horiz-adv-x="1589" d="M150 717q0 218 34 366.5t121 233.5q70 70 207 108.5t283 38.5t283.5 -38.5t207.5 -108.5q86 -86 121 -235t35 -365q0 -214 -35 -364t-121 -236q-70 -70 -207.5 -109t-283.5 -39t-283 39t-207 109q-87 85 -121 234t-34 366zM340 717q0 -379 109 -488q48 -48 137.5 -76 t208.5 -28t208.5 28t137.5 76q110 107 110 488q0 380 -110 487q-49 49 -138.5 77t-207.5 28t-207.5 -28t-138.5 -77q-109 -109 -109 -487z" />
<glyph unicode="P" horiz-adv-x="1409" d="M229 0v1434h564q130 0 241.5 -29.5t169.5 -87.5q101 -101 101 -348q0 -250 -101 -351q-58 -58 -169.5 -87t-241.5 -29h-379v-502h-185zM414 657h323q240 0 316 76q35 33 48 90t13 146q0 174 -61 235q-77 74 -316 74h-323v-621z" />
<glyph unicode="Q" horiz-adv-x="1589" d="M150 717q0 217 34 366t121 234q70 70 207 108.5t283 38.5t283.5 -38.5t207.5 -108.5q86 -86 121 -236t35 -364q0 -216 -35 -365t-121 -235q-77 -77 -246 -119l353 -225l-113 -99l-444 295h-41q-146 0 -283 39t-207 109q-87 85 -121 233.5t-34 366.5zM340 717 q0 -379 109 -488q48 -48 137.5 -76t208.5 -28t208.5 28t137.5 76q110 107 110 488q0 380 -110 487q-49 49 -138.5 77t-207.5 28t-207.5 -28t-138.5 -77q-109 -109 -109 -487z" />
<glyph unicode="R" horiz-adv-x="1488" d="M229 0v1434h564q128 0 246 -28.5t173 -84.5q93 -93 93 -324q0 -208 -95 -303q-44 -44 -135.5 -73t-197.5 -39l471 -582h-226l-442 571h-266v-571h-185zM414 717h323q251 0 324 76q53 53 53 204q0 154 -53 207q-74 74 -324 74h-323v-561z" />
<glyph unicode="S" horiz-adv-x="1314" d="M138 959q-9 52 -9 104.5t9 105.5q18 105 65 152q76 74 193 105.5t280 31.5q248 0 438 -69v-146q-206 62 -420 62q-262 0 -346 -84q-40 -40 -40 -147.5t40 -147.5q33 -33 144.5 -70t229 -65t232 -68t152.5 -78q54 -52 72 -161q9 -52 8 -103q0 -57 -10 -113 q-20 -108 -72 -159q-134 -134 -483 -134q-303 0 -474 70v145q219 -61 465 -61q272 0 351 82q42 43 42 158t-42 157q-28 29 -135 61.5t-223.5 59t-235 69.5t-166.5 91q-47 47 -65 152z" />
<glyph unicode="T" horiz-adv-x="1390" d="M63 1278v156h1266v-156h-541v-1278h-186v1278h-539z" />
<glyph unicode="U" horiz-adv-x="1617" d="M209 700v734h184v-734q0 -226 15.5 -329t68.5 -156q49 -49 130 -69.5t202 -20.5t202 20.5t130 69.5q53 53 68.5 156t15.5 329v734h184v-734q0 -244 -23.5 -383t-97.5 -213q-135 -135 -479 -135t-479 135q-74 74 -97.5 213t-23.5 383z" />
<glyph unicode="V" horiz-adv-x="1464" d="M86 1434h197q64 -304 197.5 -677.5t256.5 -596.5q122 222 255.5 596t199.5 678h186q-84 -371 -232.5 -755.5t-309.5 -678.5h-207q-162 294 -310.5 678.5t-232.5 755.5z" />
<glyph unicode="W" horiz-adv-x="2240" d="M86 1434h199q66 -295 159.5 -636.5t178.5 -584.5l395 1221h205l395 -1219q83 238 175.5 576.5t162.5 642.5h196q-221 -938 -432 -1434h-209l-391 1198l-391 -1198h-209q-204 473 -434 1434z" />
<glyph unicode="X" horiz-adv-x="1495" d="M92 0l551 719l-524 715h225l414 -576l416 576h217l-537 -705l549 -729h-227l-437 588l-432 -588h-215z" />
<glyph unicode="Y" horiz-adv-x="1445" d="M78 1434h196q71 -185 196 -393t259 -367q132 157 257 365t198 395h184q-163 -444 -553 -924v-510h-186v512q-386 475 -551 922z" />
<glyph unicode="Z" horiz-adv-x="1425" d="M131 0v125l918 1151h-885v158h1122v-125l-924 -1151h945v-158h-1176z" />
<glyph unicode="[" horiz-adv-x="747" d="M201 -276v1710h485v-125h-340v-1461h340v-124h-485z" />
<glyph unicode="\" horiz-adv-x="905" d="M25 1505h145l711 -1781h-146z" />
<glyph unicode="]" horiz-adv-x="747" d="M61 -152h340v1461h-340v125h486v-1710h-486v124z" />
<glyph unicode="^" horiz-adv-x="1024" d="M166 748l287 614h120l285 -614h-135l-211 464l-211 -464h-135z" />
<glyph unicode="_" horiz-adv-x="1024" d="M0 -274h1024v-125h-1024v125z" />
<glyph unicode="`" horiz-adv-x="1024" d="M281 1505h215l249 -309h-157z" />
<glyph unicode="a" horiz-adv-x="1236" d="M127 301q0 173 74 250q88 88 288 88q222 0 406 -113v121q0 115 -11 164t-44 82q-70 70 -301 70q-194 0 -346 -50v148q62 25 166 39t208 14q299 0 412 -113q55 -55 72.5 -131t17.5 -225v-645h-174v104q-162 -135 -418 -135q-187 0 -270 80q-80 80 -80 252zM295 309 q0 -106 45 -151t180 -45q205 0 375 104v205q-172 84 -375 84q-135 0 -180 -45q-45 -42 -45 -152z" />
<glyph unicode="b" horiz-adv-x="1294" d="M172 0v1505h174v-561q76 84 175.5 127t211.5 43q219 0 322 -106q117 -114 123 -465q-6 -355 -121 -467q-107 -107 -322 -107q-236 0 -389 170v-139h-174zM346 254q173 -131 342 -131q160 0 234 74q77 74 77 346q0 270 -77 344q-76 76 -234 76q-166 0 -342 -132v-577z" />
<glyph unicode="c" horiz-adv-x="1077" d="M117 543q0 335 114 452q116 119 396 119q200 0 325 -51v-141q-148 45 -307 45q-196 0 -274 -78q-80 -77 -80 -346q0 -267 80 -344q82 -82 274 -82q159 0 313 49v-141q-138 -56 -331 -56q-280 0 -396 121q-114 114 -114 453z" />
<glyph unicode="d" horiz-adv-x="1294" d="M117 543q6 351 123 465q103 106 321 106q112 0 211.5 -43t175.5 -127v561h174v-1505h-174v139q-153 -170 -389 -170q-214 0 -321 107q-115 112 -121 467zM295 543q0 -271 78 -346q74 -74 233 -74q169 0 342 131v577q-175 132 -342 132q-157 0 -233 -76q-78 -75 -78 -344z " />
<glyph unicode="e" horiz-adv-x="1161" d="M117 543q0 333 114 450q118 121 363 121q121 0 205.5 -27t148.5 -92q61 -60 82 -171.5t21 -288.5h-760q3 -264 80 -338q80 -80 291 -80q177 0 335 47v-141q-139 -54 -368 -54q-282 0 -398 119q-114 114 -114 455zM295 659h584q-6 188 -62 244q-74 74 -225 74t-225 -74 q-63 -63 -72 -244z" />
<glyph unicode="f" horiz-adv-x="831" d="M84 940v143h162v54q0 139 15.5 209.5t55.5 111.5q78 78 265 78q146 0 241 -39v-143q-93 35 -200 35q-121 0 -164 -43q-21 -21 -29 -65t-8 -144v-54h356v-143h-356v-940h-176v940h-162z" />
<glyph unicode="g" horiz-adv-x="1294" d="M117 557q6 344 116 451q103 106 322 106q114 0 216 -43t177 -127v139h176v-958q0 -308 -123 -434q-124 -121 -421 -121q-204 0 -375 70v141q199 -64 362 -64q223 0 305 82q76 76 76 316v55q-76 -84 -176.5 -127t-214.5 -43q-218 0 -324 106q-110 110 -116 451zM295 557 q0 -252 78 -330q73 -73 233 -73q172 0 342 131v544q-177 134 -342 134q-157 0 -233 -76q-78 -78 -78 -330z" />
<glyph unicode="h" horiz-adv-x="1284" d="M172 0v1505h174v-573q75 82 189 132t229 50q188 0 274 -90q41 -39 62.5 -98t21.5 -164v-762h-174v694q0 164 -49 213q-30 30 -73 43t-117 13q-81 0 -178 -37.5t-185 -102.5v-823h-174z" />
<glyph unicode="i" horiz-adv-x="518" d="M160 1442q0 49 22.5 71.5t77.5 22.5q54 0 76 -22.5t22 -71.5q0 -48 -22 -71t-76 -23q-55 0 -77.5 23t-22.5 71zM172 0v1083h174v-1083h-174z" />
<glyph unicode="j" horiz-adv-x="520" d="M-117 -262q81 -29 146 -29q75 0 108 33q22 23 28.5 71t6.5 175v1095h174v-1095q0 -155 -15.5 -229.5t-56.5 -118.5q-61 -70 -208 -70q-86 0 -183 33v135zM160 1442q0 49 22.5 71.5t77.5 22.5q54 0 76 -22.5t22 -71.5q0 -48 -22 -71t-76 -23q-55 0 -77.5 23t-22.5 71z" />
<glyph unicode="k" horiz-adv-x="1140" d="M172 0v1505h174v-864l522 442h217l-577 -489l584 -594h-220l-526 537v-537h-174z" />
<glyph unicode="l" horiz-adv-x="727" d="M168 410v1095h176v-1099q0 -128 7 -173t30 -67q38 -41 115 -41q82 0 170 35v-144q-90 -39 -209 -39q-145 0 -215 70q-44 44 -59 122.5t-15 240.5z" />
<glyph unicode="m" horiz-adv-x="1945" d="M172 0v1083h174v-151q74 82 174.5 132t202.5 50q172 0 260 -84q49 -53 66 -117q75 89 180.5 145t212.5 56q172 0 260 -84q40 -42 61 -102t21 -166v-762h-174v694q0 164 -49 213q-53 56 -175 56q-71 0 -156.5 -38t-166.5 -102q2 -18 2 -61v-762h-174v694q0 164 -49 213 q-29 29 -68.5 42.5t-105.5 13.5q-144 0 -322 -138v-825h-174z" />
<glyph unicode="n" horiz-adv-x="1284" d="M172 0v1083h174v-151q75 82 189 132t229 50q188 0 274 -90q41 -39 62.5 -98t21.5 -164v-762h-174v694q0 164 -49 213q-30 30 -73 43t-117 13q-81 0 -178 -37.5t-185 -102.5v-823h-174z" />
<glyph unicode="o" horiz-adv-x="1249" d="M117 543q0 333 114 450q61 62 168 91.5t228 29.5q119 0 224.5 -29.5t166.5 -91.5q117 -120 117 -450q0 -333 -117 -453q-61 -62 -166.5 -91.5t-224.5 -29.5q-121 0 -228 29.5t-168 91.5q-114 117 -114 453zM293 543q0 -269 78 -350q81 -78 256 -78q171 0 252 78 q77 80 77 350t-77 350q-79 76 -252 76q-177 0 -256 -76q-78 -81 -78 -350z" />
<glyph unicode="p" horiz-adv-x="1294" d="M172 -399v1482h174v-139q153 170 389 170q216 0 322 -106q115 -112 121 -465q-6 -353 -123 -467q-104 -107 -322 -107q-112 0 -211.5 43t-175.5 127v-538h-174zM346 254q170 -131 342 -131q160 0 234 74q77 74 77 346q0 270 -77 344q-76 76 -234 76q-165 0 -342 -134 v-575z" />
<glyph unicode="q" horiz-adv-x="1304" d="M129 543q3 350 121 465q103 106 321 106q112 0 212.5 -43.5t174.5 -126.5v139h177v-1482h-177v538q-150 -170 -387 -170q-214 0 -321 107q-118 115 -121 467zM307 543q0 -270 76 -346q74 -74 235 -74q170 0 340 131v577q-176 132 -340 132q-159 0 -235 -76t-76 -344z" />
<glyph unicode="r" horiz-adv-x="927" d="M172 0v1083h174v-165q74 94 174.5 145t216.5 51q70 0 121 -14v-156q-79 17 -143 17q-100 0 -195.5 -46t-173.5 -135v-780h-174z" />
<glyph unicode="s" horiz-adv-x="1091" d="M136 732q-7 39 -6 78q0 41 7 81q14 80 51 117q59 57 149.5 78.5t221.5 21.5q224 0 354 -53v-137q-175 49 -342 49q-187 0 -247 -60q-26 -26 -25 -90q0 -67 25 -94q26 -25 112 -52.5t176.5 -49.5t179 -52t117.5 -59q37 -38 51 -127q6 -41 7 -82q0 -49 -9 -97 q-16 -90 -55 -128q-101 -101 -389 -101q-244 0 -373 56v137q170 -51 365 -51q101 0 163.5 11.5t96.5 45.5q32 30 33 112v5q0 78 -29 106q-19 19 -101 44t-173 47.5t-183 57.5t-127 70q-36 36 -50 116z" />
<glyph unicode="t" horiz-adv-x="905" d="M92 940v143h162v273h176v-273h326v-143h-326v-534q0 -123 8.5 -170.5t32.5 -71.5q39 -39 139 -39q104 0 193 35v-144q-92 -39 -234 -39q-177 0 -243 74q-40 45 -56 118t-16 226v545h-162z" />
<glyph unicode="u" horiz-adv-x="1284" d="M162 322v761h174v-694q0 -164 49 -213q30 -30 73 -42.5t117 -12.5q81 0 178 37t185 102v823h174v-1083h-174v154q-75 -84 -189 -134.5t-229 -50.5q-188 0 -274 90q-41 39 -62.5 98.5t-21.5 164.5z" />
<glyph unicode="v" horiz-adv-x="1173" d="M72 1083h184q52 -206 147 -466t189 -453q92 189 186.5 449.5t147.5 469.5h176q-70 -276 -188.5 -566t-241.5 -517h-170q-125 232 -242.5 520.5t-187.5 562.5z" />
<glyph unicode="w" horiz-adv-x="1777" d="M82 1083h186q44 -193 114 -439t136 -437l285 876h172l285 -876q65 189 135 435t114 441h187q-69 -286 -163.5 -578.5t-184.5 -504.5h-181l-278 829l-279 -829h-180q-90 212 -184.5 504.5t-163.5 578.5z" />
<glyph unicode="x" horiz-adv-x="1234" d="M94 0l426 551l-395 532h211l295 -407l295 407h204l-409 -532l418 -551h-211l-318 426l-313 -426h-203z" />
<glyph unicode="y" horiz-adv-x="1179" d="M72 1083h184q62 -210 158.5 -451t195.5 -442q195 437 322 893h176q-99 -347 -232 -670.5t-270 -574.5q-35 -67 -59 -106t-54 -74.5t-61.5 -52t-73 -26t-98.5 -9.5q-48 0 -104 18v148q52 -17 102 -17q63 0 102 28t89 120q29 48 71 135q-121 233 -243 521t-205 560z" />
<glyph unicode="z" horiz-adv-x="1146" d="M121 0v111l657 829h-637v143h863v-110h-3l3 -2l-662 -828h682v-143h-903z" />
<glyph unicode="{" horiz-adv-x="796" d="M53 516v125q89 0 125.5 8t59.5 31q22 22 33.5 65t11.5 142v108q0 140 21 219t69 127q93 93 362 93v-125q-196 0 -254 -58q-30 -30 -41.5 -85t-11.5 -171v-106q0 -99 -14.5 -148.5t-40.5 -83.5q-16 -24 -38.5 -40t-68.5 -39q78 -37 109 -80q25 -35 39 -83.5t14 -146.5 v-104q0 -115 12 -171t41 -85q60 -60 254 -60v-124q-266 0 -362 92q-47 47 -68.5 126.5t-21.5 221.5v106q0 101 -11 143.5t-34 63.5q-21 22 -59 30.5t-126 8.5z" />
<glyph unicode="|" horiz-adv-x="614" d="M240 -276v1781h135v-1781h-135z" />
<glyph unicode="}" horiz-adv-x="796" d="M61 -152q198 0 254 58q30 28 42 84.5t12 171.5v104q0 100 14 149t41 83q16 25 39 41.5t67 38.5q-78 37 -108 79q-25 34 -39 83.5t-14 146.5v106q0 114 -12.5 169.5t-41.5 86.5q-62 62 -254 58v125q267 3 363 -93q47 -47 68.5 -126t21.5 -220v-108q0 -99 11 -142.5 t34 -64.5q20 -22 58 -29.5t128 -7.5v-125q-88 0 -125 -8.5t-61 -32.5q-22 -22 -33.5 -64.5t-11.5 -142.5v-106q0 -142 -21 -221t-69 -127q-90 -90 -363 -90v124z" />
<glyph unicode="~" horiz-adv-x="1024" d="M145 438q0 235 52 287q45 45 131 45q76 0 123 -33q24 -17 91.5 -98t82.5 -92q27 -21 61 -21q38 0 62 21q32 36 32 201h101q0 -235 -52 -287q-45 -45 -129 -45q-78 0 -125 33q-25 18 -92.5 98.5t-81.5 91.5q-26 20 -61 20q-38 0 -61 -20q-33 -37 -33 -201h-101z" />
<glyph unicode="&#xa1;" horiz-adv-x="559" d="M172 1006q0 108 107 108q55 0 79.5 -26t24.5 -82q0 -59 -24.5 -85t-79.5 -26t-81 26.5t-26 84.5zM188 -334l21 987h141l21 -987h-183z" />
<glyph unicode="&#xa2;" d="M88 721q0 151 30.5 269t90.5 179q108 111 375 121v328h139v-328q171 -6 281 -51v-147q-130 41 -281 47v-834q147 6 287 49v-149q-112 -49 -287 -55v-328h-139v328q-269 11 -375 122q-60 60 -90.5 178t-30.5 271zM270 721q0 -254 82 -336q67 -67 232 -80v832 q-167 -13 -232 -78q-82 -82 -82 -338z" />
<glyph unicode="&#xa3;" d="M70 0v150h229v503h-215v131h215v185q0 154 19 243.5t71 141.5q107 110 326 110q166 0 286 -55v-147q-122 43 -253 43q-151 0 -211 -60q-36 -36 -47 -97.5t-11 -180.5v-183h457v-131h-457v-503h547v-150h-956z" />
<glyph unicode="&#xa4;" d="M166 1020l90 90l94 -94q77 47 209 47q130 0 207 -47l94 94l90 -90l-106 -107q26 -77 26 -194q0 -120 -26 -197l106 -106l-90 -90l-96 96q-74 -47 -205 -47q-133 0 -207 47l-94 -94l-90 90l106 106q-28 71 -28 195q0 117 26 194zM373 719q0 -152 45 -197q43 -43 141 -43 t141 43q45 48 45 197q0 154 -45 199q-46 43 -141 43q-98 0 -141 -43q-45 -42 -45 -199z" />
<glyph unicode="&#xa5;" d="M55 1434h197q171 -298 311 -476q135 168 311 476h185q-150 -258 -316 -486h277v-131h-373v-196h373v-132h-373v-489h-182v489h-369v132h369v196h-369v131h275q-156 210 -316 486z" />
<glyph unicode="&#xa6;" horiz-adv-x="614" d="M240 -276v661h135v-661h-135zM240 844v661h135v-661h-135z" />
<glyph unicode="&#xa7;" horiz-adv-x="1124" d="M194.5 525q-13.5 80 2 160.5t55.5 121.5q41 38 108 61q-37 18 -73 54q-38 38 -50.5 132.5t4.5 188t56 131.5q50 51 121 69.5t188 18.5q159 0 291 -47v-133q-160 45 -276 45q-159 0 -205 -49q-32 -32 -34.5 -131.5t26.5 -130.5q39 -38 136.5 -74t198 -75.5t146.5 -86.5 q38 -38 51.5 -118t-2 -160.5t-55.5 -120.5q-37 -37 -111 -62q47 -26 76 -55q38 -37 50.5 -131t-4.5 -188t-56 -133q-50 -50 -122.5 -69t-187.5 -19q-153 0 -290 49v133q149 -45 276 -45q158 0 205 47q32 32 34.5 131.5t-28.5 130.5t-98.5 61t-134.5 51t-138.5 54.5 t-107.5 69.5q-38 39 -51.5 119zM327 633.5q-4 -97.5 31 -133.5q20 -20 59 -39.5t74.5 -32.5t95.5 -33.5t93 -32.5q57 19 90 54q34 39 37.5 137.5t-31.5 134.5q-26 26 -73.5 47t-130.5 48t-117 40q-58 -19 -90 -53q-34 -39 -38 -136.5z" />
<glyph unicode="&#xa8;" horiz-adv-x="1024" d="M227 1444q0 92 97 92q92 0 92 -94t-92 -94q-97 0 -97 96zM610 1442q0 48 23.5 71t73.5 23q92 0 92 -94t-92 -94q-97 0 -97 94z" />
<glyph unicode="&#xa9;" horiz-adv-x="1703" d="M123 717q0 201 47 345t129 228q87 87 230 130.5t323 43.5t323 -43.5t230 -130.5q82 -84 129 -228t47 -345t-47 -345.5t-129 -228.5q-87 -87 -230 -130.5t-323 -43.5t-323 43.5t-230 130.5q-82 84 -129 228.5t-47 345.5zM231 717q0 -177 40 -308.5t106 -195.5 q70 -70 194.5 -105.5t280.5 -35.5q155 0 280 35.5t193 105.5q66 65 107 196.5t41 307.5t-41 307.5t-107 196.5q-69 69 -194.5 105t-278.5 36t-279 -36t-196 -105q-65 -65 -105.5 -196.5t-40.5 -307.5zM481 717q0 261 94 358q43 43 129 66.5t175 23.5q147 0 235 -43v-100 q-114 38 -223 35q-148 3 -211 -60q-66 -66 -66 -280q0 -213 66 -279q55 -58 211 -61q109 0 235 37v-101q-83 -39 -247 -39q-89 -2 -175 20.5t-129 65.5q-94 94 -94 357z" />
<glyph unicode="&#xaa;" horiz-adv-x="839" d="M123 936q0 106 45 154q52 49 178 49q127 0 234 -62v68q0 65 -5.5 91t-25.5 44q-41 41 -178 41q-105 0 -207 -31v105q71 32 229 32q185 0 254 -69q34 -34 46 -81t12 -132v-387h-125v65q-104 -84 -248 -84q-113 0 -160 47q-49 49 -49 150zM145 502v106h560v-106h-560z M244 944q0 -60 22 -82q26 -26 103 -26q118 0 211 55v117q-107 45 -211 45q-76 0 -103 -27q-22 -22 -22 -82z" />
<glyph unicode="&#xab;" horiz-adv-x="952" d="M66 551l260 422h157l-252 -422l252 -424h-157zM461 551l260 422h158l-252 -422l252 -424h-158z" />
<glyph unicode="&#xac;" horiz-adv-x="1118" d="M141 651v129h836v-475h-129v346h-707z" />
<glyph unicode="&#xad;" horiz-adv-x="559" d="M53 489v125h451v-125h-451z" />
<glyph unicode="&#xae;" horiz-adv-x="1703" d="M123 717q0 201 47 345t129 228q87 87 230 130.5t323 43.5t323 -43.5t230 -130.5q82 -84 129 -228t47 -345t-47 -345.5t-129 -228.5q-87 -87 -230 -130.5t-323 -43.5t-323 43.5t-230 130.5q-82 84 -129 228.5t-47 345.5zM231 717q0 -177 40 -308.5t106 -195.5 q70 -70 194.5 -105.5t280.5 -35.5q155 0 280 35.5t193 105.5q66 65 107 196.5t41 307.5t-41 307.5t-107 196.5q-69 69 -194.5 105t-278.5 36t-279 -36t-196 -105q-65 -65 -105.5 -196.5t-40.5 -307.5zM549 287v860h354q74 0 144.5 -17.5t105.5 -50.5q55 -58 55 -196 q0 -128 -57 -185q-51 -51 -193 -69l261 -342h-152l-240 336h-147v-336h-131zM680 725h182q144 0 185 41q30 30 30 117q0 84 -30 114q-46 43 -185 43h-182v-315z" />
<glyph unicode="&#xaf;" horiz-adv-x="1024" d="M229 1313v110h566v-110h-566z" />
<glyph unicode="&#xb0;" horiz-adv-x="847" d="M113 1083q0 199 69 271q73 73 242 73t242 -73q69 -72 69 -271q0 -196 -69 -268q-73 -76 -242 -76q-72 0 -138 18t-104 58q-69 72 -69 268zM238 1083q0 -148 45 -196q43 -43 141 -43t141 43q45 45 45 196q0 157 -45 199q-43 43 -141 43t-141 -43q-45 -45 -45 -199z" />
<glyph unicode="&#xb1;" horiz-adv-x="1118" d="M141 125v127h836v-127h-836zM141 586v127h353v248h129v-248h354v-127h-354v-246h-129v246h-353z" />
<glyph unicode="&#xb2;" horiz-adv-x="681" d="M59 758v84l291 286q80 83 102.5 133t22.5 123q0 66 -35 105q-37 37 -153 37q-100 0 -215 -39v108q96 41 231 41q179 0 248 -69q30 -30 41.5 -70t11.5 -104q0 -101 -30.5 -164t-122.5 -158l-211 -205h370v-108h-551z" />
<glyph unicode="&#xb3;" horiz-adv-x="679" d="M57 1509v109h547v-84l-291 -285q187 -11 250 -71q64 -67 64 -177q0 -66 -15.5 -109.5t-50.5 -80.5q-72 -72 -272 -72q-139 0 -223 37v105q109 -31 221 -31q132 0 172 43q39 39 39 108q0 66 -37 99q-26 26 -99 37.5t-217 11.5v90l281 270h-369z" />
<glyph unicode="&#xb4;" horiz-adv-x="1024" d="M281 1196l249 309h215l-307 -309h-157z" />
<glyph unicode="&#xb6;" horiz-adv-x="1294" d="M104 1016q0 216 101 317q57 57 159.5 79t249.5 22h138v-1434h-138v594q-309 0 -409 100q-101 98 -101 322zM930 0v1434h137v-1434h-137z" />
<glyph unicode="&#xb7;" horiz-adv-x="559" d="M174 557q0 58 25.5 84.5t79.5 26.5q56 0 81 -26.5t25 -84.5q0 -56 -25.5 -82t-80.5 -26q-54 0 -79.5 26t-25.5 82z" />
<glyph unicode="&#xb8;" horiz-adv-x="1024" d="M299 -313q89 -27 180 -27q77 0 101 21q18 18 18 59q0 33 -18 51q-24 21 -103 21q-36 0 -127 -11v41l90 168h101l-62 -121h23q133 0 178 -45q39 -39 39 -110q0 -81 -41 -119q-42 -45 -180 -45q-107 0 -199 29v88z" />
<glyph unicode="&#xb9;" horiz-adv-x="679" d="M104 1266v149l271 203h106v-860h-129v694z" />
<glyph unicode="&#xba;" horiz-adv-x="847" d="M113 1083q0 199 69 271q73 73 242 73t242 -73q69 -72 69 -271q0 -196 -69 -268q-73 -76 -242 -76q-72 0 -138 18t-104 58q-69 72 -69 268zM145 502v106h557v-106h-557zM238 1083q0 -148 45 -196q43 -43 141 -43t141 43q45 45 45 196q0 157 -45 199q-43 43 -141 43 t-141 -43q-45 -45 -45 -199z" />
<glyph unicode="&#xbb;" horiz-adv-x="942" d="M74 127l252 422l-252 424h157l263 -424l-263 -422h-157zM457 127l252 422l-252 424h157l263 -424l-263 -422h-157z" />
<glyph unicode="&#xbc;" horiz-adv-x="1728" d="M104 1081v150l271 203h106v-861h-129v695zM403 0l891 1434h148l-891 -1434h-148zM1075 219v82l408 559h119v-532h108v-109h-108v-219h-132v219h-395zM1219 328h251v352z" />
<glyph unicode="&#xbd;" horiz-adv-x="1730" d="M104 1081v150l271 203h106v-861h-129v695zM344 0l891 1434h147l-890 -1434h-148zM1106 0v84l291 287q80 83 102.5 133t22.5 123q0 65 -35 104q-37 37 -154 37q-100 0 -215 -39v109q96 41 232 41q177 0 247 -70q30 -30 42 -70.5t12 -103.5q0 -101 -30.5 -163.5 t-123.5 -158.5l-211 -204h371v-109h-551z" />
<glyph unicode="&#xbe;" horiz-adv-x="1728" d="M57 1325v109h547v-84l-291 -285q186 -11 250 -72q64 -67 64 -176q0 -66 -15.5 -109.5t-50.5 -80.5q-72 -72 -272 -72q-139 0 -223 37v104q105 -30 221 -30q132 0 172 43q39 39 39 108q0 65 -37 98q-27 27 -100 38.5t-216 11.5v90l281 270h-369zM403 0l891 1434h148 l-891 -1434h-148zM1075 219v82l408 559h119v-532h108v-109h-108v-219h-132v219h-395zM1219 328h251v352z" />
<glyph unicode="&#xbf;" horiz-adv-x="983" d="M121 20q0 88 24 167.5t66 121.5q32 32 57.5 50.5t109.5 52.5t222 71l2 189h150l2 -295q-147 -36 -238.5 -68t-122.5 -51.5t-55 -44.5q-25 -25 -41 -78.5t-16 -111.5t16 -109t41 -76q60 -57 240 -57q143 0 331 37v-146q-152 -37 -348 -37q-251 0 -350 99q-42 42 -66 120 t-24 166zM569 1006q0 108 107 108q54 0 79 -26t25 -82q0 -58 -25 -84.5t-79 -26.5q-55 0 -81 26.5t-26 84.5z" />
<glyph unicode="&#xc0;" horiz-adv-x="1482" d="M96 0q84 373 231.5 756.5t309.5 677.5h209q162 -296 309 -679t231 -755h-192q-47 218 -129 471h-655q-82 -253 -129 -471h-185zM301 1794h242l276 -268h-176zM461 625h551q-146 414 -275 649q-132 -240 -276 -649z" />
<glyph unicode="&#xc1;" horiz-adv-x="1482" d="M96 0q84 373 231.5 756.5t309.5 677.5h209q162 -296 309 -679t231 -755h-192q-47 218 -129 471h-655q-82 -253 -129 -471h-185zM461 625h551q-146 414 -275 649q-132 -240 -276 -649zM664 1526l276 268h242l-342 -268h-176z" />
<glyph unicode="&#xc2;" horiz-adv-x="1482" d="M96 0q84 373 231.5 756.5t309.5 677.5h209q162 -296 309 -679t231 -755h-192q-47 218 -129 471h-655q-82 -253 -129 -471h-185zM395 1526l244 268h205l243 -268h-145l-201 182l-198 -182h-148zM461 625h551q-146 414 -275 649q-132 -240 -276 -649z" />
<glyph unicode="&#xc3;" horiz-adv-x="1482" d="M96 0q84 373 231.5 756.5t309.5 677.5h209q162 -296 309 -679t231 -755h-192q-47 218 -129 471h-655q-82 -253 -129 -471h-185zM414 1552q0 89 11.5 130t35.5 63q36 39 112 39q56 0 119.5 -29t115.5 -57.5t81 -28.5q36 0 55 19t19 94h106q0 -88 -11 -129t-34 -64 q-39 -39 -113 -39q-53 0 -115 29t-115 57.5t-85 28.5q-39 0 -57 -18q-19 -22 -19 -95h-106zM461 625h551q-146 414 -275 649q-132 -240 -276 -649z" />
<glyph unicode="&#xc4;" horiz-adv-x="1482" d="M96 0q84 373 231.5 756.5t309.5 677.5h209q162 -296 309 -679t231 -755h-192q-47 218 -129 471h-655q-82 -253 -129 -471h-185zM457 1677q0 48 23 71.5t73 23.5q92 0 92 -97q0 -92 -92 -92q-96 0 -96 94zM461 625h551q-146 414 -275 649q-132 -240 -276 -649zM840 1677 q0 95 96 95q92 0 92 -97q0 -92 -92 -92q-50 0 -73 23t-23 71z" />
<glyph unicode="&#xc5;" horiz-adv-x="1482" d="M96 0q84 373 231.5 756.5t309.5 677.5h209q162 -296 309 -679t231 -755h-192q-47 218 -129 471h-655q-82 -253 -129 -471h-185zM461 625h551q-146 414 -275 649q-132 -240 -276 -649zM532 1686q0 88 43 131q49 49 166 49q64 0 102 -11.5t64 -37.5q43 -43 43 -131 q0 -89 -43 -132q-26 -26 -64 -37.5t-102 -11.5q-117 0 -166 49q-43 43 -43 132zM623 1686q0 -57 26 -80q26 -29 92 -29t95 29q24 24 24 80q0 54 -24 81q-30 27 -95 27t-92 -27q-26 -26 -26 -81z" />
<glyph unicode="&#xc6;" horiz-adv-x="2211" d="M66 0q172 404 422.5 797t484.5 637h1073v-156h-807v-473h741v-154h-741v-495h807v-156h-991v463h-568q-129 -235 -221 -463h-200zM575 616h480v687q-270 -329 -480 -687z" />
<glyph unicode="&#xc7;" horiz-adv-x="1357" d="M150 715q0 218 34 365.5t121 234.5q70 70 208.5 109.5t285.5 39.5q226 0 389 -69v-146q-194 60 -371 60q-257 0 -362 -105q-115 -115 -115 -487q0 -189 27.5 -308.5t87.5 -179.5q47 -50 141 -77t221 -27q203 0 393 59v-145q-165 -70 -411 -70h-15l-41 -80h23 q133 0 178 -45q39 -39 39 -110q0 -81 -41 -119q-42 -45 -180 -45q-107 0 -199 29v88q89 -27 180 -27q77 0 101 21q18 18 18 59q0 33 -18 51q-24 21 -103 21q-36 0 -127 -11v41l72 133q-121 13 -223 49.5t-158 92.5q-87 85 -121 233t-34 365z" />
<glyph unicode="&#xc8;" horiz-adv-x="1386" d="M229 0v1434h992v-156h-807v-473h741v-154h-741v-495h807v-156h-992zM315 1794h242l277 -268h-177z" />
<glyph unicode="&#xc9;" horiz-adv-x="1386" d="M229 0v1434h992v-156h-807v-473h741v-154h-741v-495h807v-156h-992zM631 1526l276 268h242l-342 -268h-176z" />
<glyph unicode="&#xca;" horiz-adv-x="1386" d="M229 0v1434h992v-156h-807v-473h741v-154h-741v-495h807v-156h-992zM391 1526l244 268h205l243 -268h-145l-201 182l-198 -182h-148z" />
<glyph unicode="&#xcb;" horiz-adv-x="1386" d="M229 0v1434h992v-156h-807v-473h741v-154h-741v-495h807v-156h-992zM453 1677q0 48 23 71.5t73 23.5q92 0 92 -97q0 -92 -92 -92q-96 0 -96 94zM836 1677q0 95 96 95q92 0 92 -97q0 -92 -92 -92q-50 0 -73 23t-23 71z" />
<glyph unicode="&#xcc;" horiz-adv-x="661" d="M-94 1794h241l277 -268h-176zM238 0v1434h186v-1434h-186z" />
<glyph unicode="&#xcd;" horiz-adv-x="661" d="M238 0v1434h186v-1434h-186zM246 1526l276 268h242l-342 -268h-176z" />
<glyph unicode="&#xce;" horiz-adv-x="661" d="M-14 1526l243 268h205l244 -268h-146l-200 182l-199 -182h-147zM238 0v1434h186v-1434h-186z" />
<glyph unicode="&#xcf;" horiz-adv-x="661" d="M47 1677q0 48 23 71.5t73 23.5q93 0 93 -97q0 -92 -93 -92q-96 0 -96 94zM238 0v1434h186v-1434h-186zM430 1677q0 95 96 95q92 0 92 -97q0 -92 -92 -92q-50 0 -73 23t-23 71z" />
<glyph unicode="&#xd0;" horiz-adv-x="1552" d="M41 672v125h188v637h547q160 0 294.5 -40.5t207.5 -115.5q81 -80 114 -216t33 -347q0 -210 -32.5 -343.5t-114.5 -215.5q-73 -75 -207.5 -115.5t-294.5 -40.5h-547v672h-188zM414 156h342q272 0 370 98q61 61 85 166.5t24 294.5t-24 296.5t-85 168.5q-98 98 -370 98h-342 v-481h366v-125h-366v-516z" />
<glyph unicode="&#xd1;" horiz-adv-x="1648" d="M229 0v1434h150l862 -1102v1102h176v-1434h-151l-863 1100v-1100h-174zM498 1552q0 89 11.5 130t35.5 63q36 39 112 39q56 0 119.5 -29t115.5 -57.5t81 -28.5q36 0 55 19t19 94h106q0 -88 -11 -129t-34 -64q-39 -39 -113 -39q-53 0 -115 29t-115 57.5t-85 28.5 q-39 0 -57 -18q-19 -22 -19 -95h-106z" />
<glyph unicode="&#xd2;" horiz-adv-x="1589" d="M150 717q0 218 34 366.5t121 233.5q70 70 207 108.5t283 38.5t283.5 -38.5t207.5 -108.5q86 -86 121 -235t35 -365q0 -214 -35 -364t-121 -236q-70 -70 -207.5 -109t-283.5 -39t-283 39t-207 109q-87 85 -121 234t-34 366zM340 717q0 -379 109 -488q48 -48 137.5 -76 t208.5 -28t208.5 28t137.5 76q110 107 110 488q0 380 -110 487q-49 49 -138.5 77t-207.5 28t-207.5 -28t-138.5 -77q-109 -109 -109 -487zM375 1794h241l277 -268h-176z" />
<glyph unicode="&#xd3;" horiz-adv-x="1589" d="M150 717q0 218 34 366.5t121 233.5q70 70 207 108.5t283 38.5t283.5 -38.5t207.5 -108.5q86 -86 121 -235t35 -365q0 -214 -35 -364t-121 -236q-70 -70 -207.5 -109t-283.5 -39t-283 39t-207 109q-87 85 -121 234t-34 366zM340 717q0 -379 109 -488q48 -48 137.5 -76 t208.5 -28t208.5 28t137.5 76q110 107 110 488q0 380 -110 487q-49 49 -138.5 77t-207.5 28t-207.5 -28t-138.5 -77q-109 -109 -109 -487zM711 1526l276 268h242l-342 -268h-176z" />
<glyph unicode="&#xd4;" horiz-adv-x="1589" d="M150 717q0 218 34 366.5t121 233.5q70 70 207 108.5t283 38.5t283.5 -38.5t207.5 -108.5q86 -86 121 -235t35 -365q0 -214 -35 -364t-121 -236q-70 -70 -207.5 -109t-283.5 -39t-283 39t-207 109q-87 85 -121 234t-34 366zM340 717q0 -379 109 -488q48 -48 137.5 -76 t208.5 -28t208.5 28t137.5 76q110 107 110 488q0 380 -110 487q-49 49 -138.5 77t-207.5 28t-207.5 -28t-138.5 -77q-109 -109 -109 -487zM449 1526l243 268h205l244 -268h-146l-200 182l-199 -182h-147z" />
<glyph unicode="&#xd5;" horiz-adv-x="1589" d="M150 717q0 218 34 366.5t121 233.5q70 70 207 108.5t283 38.5t283.5 -38.5t207.5 -108.5q86 -86 121 -235t35 -365q0 -214 -35 -364t-121 -236q-70 -70 -207.5 -109t-283.5 -39t-283 39t-207 109q-87 85 -121 234t-34 366zM340 717q0 -379 109 -488q48 -48 137.5 -76 t208.5 -28t208.5 28t137.5 76q110 107 110 488q0 380 -110 487q-49 49 -138.5 77t-207.5 28t-207.5 -28t-138.5 -77q-109 -109 -109 -487zM467 1552q0 89 11.5 130t35.5 63q36 39 113 39q56 0 119 -29t115 -57.5t81 -28.5q36 0 55 19t19 94h106q0 -88 -11 -129t-34 -64 q-39 -39 -112 -39q-42 0 -90.5 18t-84.5 39.5t-75.5 39.5t-65.5 18q-39 0 -57 -18q-19 -22 -19 -95h-106z" />
<glyph unicode="&#xd6;" horiz-adv-x="1589" d="M150 717q0 218 34 366.5t121 233.5q70 70 207 108.5t283 38.5t283.5 -38.5t207.5 -108.5q86 -86 121 -235t35 -365q0 -214 -35 -364t-121 -236q-70 -70 -207.5 -109t-283.5 -39t-283 39t-207 109q-87 85 -121 234t-34 366zM340 717q0 -379 109 -488q48 -48 137.5 -76 t208.5 -28t208.5 28t137.5 76q110 107 110 488q0 380 -110 487q-49 49 -138.5 77t-207.5 28t-207.5 -28t-138.5 -77q-109 -109 -109 -487zM510 1677q0 48 23 71.5t73 23.5q92 0 92 -97q0 -92 -92 -92q-96 0 -96 94zM893 1677q0 95 96 95q92 0 92 -97q0 -92 -92 -92 q-50 0 -73 23t-23 71z" />
<glyph unicode="&#xd7;" d="M166 844l90 90l303 -301l301 301l90 -90l-301 -301l301 -303l-90 -90l-301 303l-301 -301l-90 90l301 301z" />
<glyph unicode="&#xd8;" horiz-adv-x="1589" d="M150 -31l131 174q-72 89 -101.5 231.5t-29.5 342.5q0 218 34 366.5t121 233.5q70 70 207 108.5t283 38.5q113 0 224.5 -24t190.5 -68l70 92h160l-131 -172q133 -163 133 -575q0 -214 -35 -364t-121 -236q-70 -70 -207.5 -109t-283.5 -39q-113 0 -225 24t-191 68l-70 -92 h-159zM340 717q0 -286 59 -416l707 932q-113 76 -311 76q-118 0 -207.5 -28t-138.5 -77q-109 -109 -109 -487zM483 201q113 -76 312 -76q119 0 208.5 28t137.5 76q110 107 110 488q0 290 -61 418z" />
<glyph unicode="&#xd9;" horiz-adv-x="1617" d="M209 700v734h184v-734q0 -226 15.5 -329t68.5 -156q49 -49 130 -69.5t202 -20.5t202 20.5t130 69.5q53 53 68.5 156t15.5 329v734h184v-734q0 -244 -23.5 -383t-97.5 -213q-135 -135 -479 -135t-479 135q-74 74 -97.5 213t-23.5 383zM379 1794h242l276 -268h-176z" />
<glyph unicode="&#xda;" horiz-adv-x="1617" d="M209 700v734h184v-734q0 -226 15.5 -329t68.5 -156q49 -49 130 -69.5t202 -20.5t202 20.5t130 69.5q53 53 68.5 156t15.5 329v734h184v-734q0 -244 -23.5 -383t-97.5 -213q-135 -135 -479 -135t-479 135q-74 74 -97.5 213t-23.5 383zM715 1526l276 268h242l-342 -268 h-176z" />
<glyph unicode="&#xdb;" horiz-adv-x="1617" d="M209 700v734h184v-734q0 -226 15.5 -329t68.5 -156q49 -49 130 -69.5t202 -20.5t202 20.5t130 69.5q53 53 68.5 156t15.5 329v734h184v-734q0 -244 -23.5 -383t-97.5 -213q-135 -135 -479 -135t-479 135q-74 74 -97.5 213t-23.5 383zM463 1526l244 268h204l244 -268h-145 l-201 182l-199 -182h-147z" />
<glyph unicode="&#xdc;" horiz-adv-x="1617" d="M209 700v734h184v-734q0 -226 15.5 -329t68.5 -156q49 -49 130 -69.5t202 -20.5t202 20.5t130 69.5q53 53 68.5 156t15.5 329v734h184v-734q0 -244 -23.5 -383t-97.5 -213q-135 -135 -479 -135t-479 135q-74 74 -97.5 213t-23.5 383zM524 1677q0 95 97 95q92 0 92 -97 q0 -92 -92 -92q-97 0 -97 94zM907 1677q0 95 97 95q92 0 92 -97q0 -92 -92 -92q-50 0 -73.5 23t-23.5 71z" />
<glyph unicode="&#xdd;" horiz-adv-x="1445" d="M78 1434h196q71 -185 196 -393t259 -367q132 157 257 365t198 395h184q-163 -444 -553 -924v-510h-186v512q-386 475 -551 922zM639 1526l276 268h242l-342 -268h-176z" />
<glyph unicode="&#xde;" horiz-adv-x="1409" d="M229 0v1434h185v-207h379q130 0 241.5 -29.5t169.5 -87.5q101 -101 101 -348q0 -249 -101 -350q-58 -58 -169.5 -87.5t-241.5 -29.5h-379v-295h-185zM414 451h323q240 0 316 73q35 35 48 92t13 146q0 171 -61 235q-77 74 -316 74h-323v-620z" />
<glyph unicode="&#xdf;" horiz-adv-x="1400" d="M84 940v143h162v54q0 130 22 197.5t66 111.5q49 49 140.5 69.5t240.5 20.5q126 0 224.5 -24.5t139.5 -65.5q51 -51 51 -148q0 -95 -45 -157q-31 -40 -123.5 -127.5t-119.5 -126.5q-27 -35 -27 -88t31 -84q32 -31 206.5 -100.5t217.5 -112.5q55 -55 55 -209 q0 -164 -63 -227q-91 -91 -314 -91q-167 0 -293 54v139q169 -51 285 -51q73 0 114.5 9.5t69.5 37.5q37 37 37 125q0 81 -31 112q-20 20 -106.5 54.5t-181 77t-133.5 81.5q-56 56 -56 172q0 115 54 183q23 27 109 106.5t118 120.5q20 31 20 74q0 49 -24 73q-21 21 -79 33.5 t-136 12.5q-189 0 -244 -52q-24 -24 -36.5 -65.5t-12.5 -134.5v-1137h-176v940h-162z" />
<glyph unicode="&#xe0;" horiz-adv-x="1236" d="M127 301q0 173 74 250q88 88 288 88q222 0 406 -113v121q0 115 -11 164t-44 82q-70 70 -301 70q-194 0 -346 -50v148q62 25 166 39t208 14q299 0 412 -113q55 -55 72.5 -131t17.5 -225v-645h-174v104q-162 -135 -418 -135q-187 0 -270 80q-80 80 -80 252zM233 1505h216 l249 -309h-157zM295 309q0 -106 45 -151t180 -45q205 0 375 104v205q-172 84 -375 84q-135 0 -180 -45q-45 -42 -45 -152z" />
<glyph unicode="&#xe1;" horiz-adv-x="1236" d="M127 301q0 173 74 250q88 88 288 88q222 0 406 -113v121q0 115 -11 164t-44 82q-70 70 -301 70q-194 0 -346 -50v148q62 25 166 39t208 14q299 0 412 -113q55 -55 72.5 -131t17.5 -225v-645h-174v104q-162 -135 -418 -135q-187 0 -270 80q-80 80 -80 252zM295 309 q0 -106 45 -151t180 -45q205 0 375 104v205q-172 84 -375 84q-135 0 -180 -45q-45 -42 -45 -152zM532 1196l250 309h215l-307 -309h-158z" />
<glyph unicode="&#xe2;" horiz-adv-x="1236" d="M127 301q0 173 74 250q88 88 288 88q222 0 406 -113v121q0 115 -11 164t-44 82q-70 70 -301 70q-194 0 -346 -50v148q62 25 166 39t208 14q299 0 412 -113q55 -55 72.5 -131t17.5 -225v-645h-174v104q-162 -135 -418 -135q-187 0 -270 80q-80 80 -80 252zM272 1196 l246 309h201l246 -309h-146l-201 215l-198 -215h-148zM295 309q0 -106 45 -151t180 -45q205 0 375 104v205q-172 84 -375 84q-135 0 -180 -45q-45 -42 -45 -152z" />
<glyph unicode="&#xe3;" horiz-adv-x="1236" d="M127 301q0 173 74 250q88 88 288 88q222 0 406 -113v121q0 115 -11 164t-44 82q-70 70 -301 70q-194 0 -346 -50v148q62 25 166 39t208 14q299 0 412 -113q55 -55 72.5 -131t17.5 -225v-645h-174v104q-162 -135 -418 -135q-187 0 -270 80q-80 80 -80 252zM291 1239 q0 93 11.5 136t35.5 67q36 39 113 39q44 0 94 -19t86 -42.5t74.5 -42.5t62.5 -19q37 0 53 18q19 19 19 103h106q0 -94 -10.5 -136.5t-34.5 -66.5q-40 -37 -113 -37q-53 0 -116 30.5t-116.5 60.5t-84.5 30q-38 0 -55 -17q-19 -22 -19 -104h-106zM295 309q0 -106 45 -151 t180 -45q205 0 375 104v205q-172 84 -375 84q-135 0 -180 -45q-45 -42 -45 -152z" />
<glyph unicode="&#xe4;" horiz-adv-x="1236" d="M127 301q0 173 74 250q88 88 288 88q222 0 406 -113v121q0 115 -11 164t-44 82q-70 70 -301 70q-194 0 -346 -50v148q62 25 166 39t208 14q299 0 412 -113q55 -55 72.5 -131t17.5 -225v-645h-174v104q-162 -135 -418 -135q-187 0 -270 80q-80 80 -80 252zM295 309 q0 -106 45 -151t180 -45q205 0 375 104v205q-172 84 -375 84q-135 0 -180 -45q-45 -42 -45 -152zM334 1444q0 47 23 69.5t73 22.5q92 0 92 -94t-92 -94q-96 0 -96 96zM717 1442q0 48 23 71t73 23q92 0 92 -94t-92 -94q-96 0 -96 94z" />
<glyph unicode="&#xe5;" horiz-adv-x="1236" d="M127 301q0 173 74 250q88 88 288 88q222 0 406 -113v121q0 115 -11 164t-44 82q-70 70 -301 70q-194 0 -346 -50v148q62 25 166 39t208 14q299 0 412 -113q55 -55 72.5 -131t17.5 -225v-645h-174v104q-162 -135 -418 -135q-187 0 -270 80q-80 80 -80 252zM295 309 q0 -106 45 -151t180 -45q205 0 375 104v205q-172 84 -375 84q-135 0 -180 -45q-45 -42 -45 -152zM410 1368q0 90 43 133q49 49 165 49q64 0 102 -11.5t64 -37.5q43 -43 43 -133q0 -93 -43 -133q-26 -28 -64 -39.5t-102 -11.5q-63 0 -101 11.5t-64 39.5q-43 40 -43 133z M500 1368q0 -61 26 -84q26 -29 92 -29t95 29q24 24 24 84t-24 84q-29 29 -95 29t-92 -29q-26 -23 -26 -84z" />
<glyph unicode="&#xe6;" horiz-adv-x="1939" d="M127 301q0 173 74 250q88 88 288 88q219 0 404 -111v15q0 46 2 69v35q0 109 -14 156.5t-52 85.5q-74 74 -290 74q-194 0 -346 -50v148q62 25 166 39t208 14q282 0 404 -119q10 -10 30 -34q5 10 25 30q66 66 149.5 94.5t196.5 28.5q120 0 204.5 -27t149.5 -92 q60 -60 81.5 -172.5t21.5 -287.5h-760q0 -261 80 -338q80 -80 291 -80q179 0 334 47v-141q-136 -54 -369 -54q-281 0 -397 119q-35 35 -54 80q-111 -103 -225 -151t-252 -48q-187 0 -270 80q-80 80 -80 252zM295 309q0 -106 45 -151t180 -45q204 0 404 147q-18 73 -27 160 q-179 86 -377 86q-135 0 -180 -45q-45 -42 -45 -152zM1073 659h584q-3 96 -17 154t-47 90q-71 74 -225 74q-152 0 -223 -74q-63 -60 -72 -244z" />
<glyph unicode="&#xe7;" horiz-adv-x="1067" d="M117 543q0 335 114 452q116 119 396 119q200 0 325 -51v-141q-148 45 -307 45q-196 0 -274 -78q-80 -77 -80 -346q0 -267 80 -344q82 -82 274 -82q159 0 313 49v-141q-134 -56 -323 -56l-41 -80h22q134 0 179 -45q39 -39 39 -110q0 -81 -41 -119q-42 -45 -181 -45 q-106 0 -198 29v88q89 -27 180 -27q76 0 100 21q19 19 19 59q0 32 -19 51q-24 21 -102 21q-36 0 -127 -11v41l70 131q-210 18 -304 117q-114 114 -114 453z" />
<glyph unicode="&#xe8;" horiz-adv-x="1161" d="M117 543q0 333 114 450q118 121 363 121q121 0 205.5 -27t148.5 -92q61 -60 82 -171.5t21 -288.5h-760q3 -264 80 -338q80 -80 291 -80q177 0 335 47v-141q-139 -54 -368 -54q-282 0 -398 119q-114 114 -114 455zM215 1505h215l250 -309h-158zM295 659h584 q-6 188 -62 244q-74 74 -225 74t-225 -74q-63 -63 -72 -244z" />
<glyph unicode="&#xe9;" horiz-adv-x="1161" d="M117 543q0 333 114 450q118 121 363 121q121 0 205.5 -27t148.5 -92q61 -60 82 -171.5t21 -288.5h-760q3 -264 80 -338q80 -80 291 -80q177 0 335 47v-141q-139 -54 -368 -54q-282 0 -398 119q-114 114 -114 455zM295 659h584q-6 188 -62 244q-74 74 -225 74t-225 -74 q-63 -63 -72 -244zM502 1196l250 309h215l-308 -309h-157z" />
<glyph unicode="&#xea;" horiz-adv-x="1161" d="M117 543q0 333 114 450q118 121 363 121q121 0 205.5 -27t148.5 -92q61 -60 82 -171.5t21 -288.5h-760q3 -264 80 -338q80 -80 291 -80q177 0 335 47v-141q-139 -54 -368 -54q-282 0 -398 119q-114 114 -114 455zM242 1196l245 309h201l246 -309h-146l-200 215l-199 -215 h-147zM295 659h584q-6 188 -62 244q-74 74 -225 74t-225 -74q-63 -63 -72 -244z" />
<glyph unicode="&#xeb;" horiz-adv-x="1161" d="M117 543q0 333 114 450q118 121 363 121q121 0 205.5 -27t148.5 -92q61 -60 82 -171.5t21 -288.5h-760q3 -264 80 -338q80 -80 291 -80q177 0 335 47v-141q-139 -54 -368 -54q-282 0 -398 119q-114 114 -114 455zM295 659h584q-6 188 -62 244q-74 74 -225 74t-225 -74 q-63 -63 -72 -244zM303 1444q0 47 23 69.5t73 22.5q93 0 93 -94t-93 -94q-96 0 -96 96zM686 1442q0 48 23 71t73 23q92 0 92 -94t-92 -94q-96 0 -96 94z" />
<glyph unicode="&#xec;" horiz-adv-x="518" d="M-125 1505h215l250 -309h-158zM172 0v1083h174v-1083h-174z" />
<glyph unicode="&#xed;" horiz-adv-x="518" d="M172 0v1083h174v-1083h-174zM174 1196l250 309h215l-307 -309h-158z" />
<glyph unicode="&#xee;" horiz-adv-x="518" d="M-88 1196l246 309h200l246 -309h-145l-201 215l-199 -215h-147zM172 0v1083h174v-1083h-174z" />
<glyph unicode="&#xef;" horiz-adv-x="518" d="M-27 1444q0 92 97 92q92 0 92 -94t-92 -94q-97 0 -97 96zM172 0v1083h174v-1083h-174zM356 1442q0 48 23.5 71t73.5 23q92 0 92 -94t-92 -94q-97 0 -97 94z" />
<glyph unicode="&#xf0;" horiz-adv-x="1232" d="M117 496q0 293 116 409q51 51 138.5 79t197.5 28q156 0 254 -62q-71 92 -157 183l-115 122l-295 -88v103l221 65l-158 168h218l108 -119l277 82v-102l-203 -59l98 -109q124 -139 189.5 -249t88.5 -208.5t23 -234.5v-8q0 -284 -117 -404q-123 -123 -385 -123 q-260 0 -383 123q-116 116 -116 404zM291 498q0 -225 80 -308q75 -75 245 -75q171 0 246 75q80 83 80 308q0 122 -19.5 191.5t-60.5 113.5q-79 76 -246 76q-174 0 -245 -74q-80 -80 -80 -307z" />
<glyph unicode="&#xf1;" horiz-adv-x="1284" d="M172 0v1083h174v-151q75 82 189 132t229 50q188 0 274 -90q41 -39 62.5 -98t21.5 -164v-762h-174v694q0 164 -49 213q-30 30 -73 43t-117 13q-81 0 -178 -37.5t-185 -102.5v-823h-174zM330 1239q0 93 11.5 136t35.5 67q36 39 112 39q44 0 94 -19t86.5 -42.5t75 -42.5 t62.5 -19q37 0 53 18q19 19 19 103h106q0 -94 -10.5 -136.5t-34.5 -66.5q-40 -37 -113 -37q-53 0 -116 30.5t-116.5 60.5t-84.5 30q-38 0 -55 -17q-19 -22 -19 -104h-106z" />
<glyph unicode="&#xf2;" horiz-adv-x="1249" d="M117 543q0 333 114 450q61 62 168 91.5t228 29.5q119 0 224.5 -29.5t166.5 -91.5q117 -120 117 -450q0 -333 -117 -453q-61 -62 -166.5 -91.5t-224.5 -29.5q-121 0 -228 29.5t-168 91.5q-114 117 -114 453zM242 1505h215l250 -309h-158zM293 543q0 -269 78 -350 q81 -78 256 -78q171 0 252 78q77 80 77 350t-77 350q-79 76 -252 76q-177 0 -256 -76q-78 -81 -78 -350z" />
<glyph unicode="&#xf3;" horiz-adv-x="1249" d="M117 543q0 333 114 450q61 62 168 91.5t228 29.5q119 0 224.5 -29.5t166.5 -91.5q117 -120 117 -450q0 -333 -117 -453q-61 -62 -166.5 -91.5t-224.5 -29.5q-121 0 -228 29.5t-168 91.5q-114 117 -114 453zM293 543q0 -269 78 -350q81 -78 256 -78q171 0 252 78 q77 80 77 350t-77 350q-79 76 -252 76q-177 0 -256 -76q-78 -81 -78 -350zM541 1196l250 309h215l-308 -309h-157z" />
<glyph unicode="&#xf4;" horiz-adv-x="1249" d="M117 543q0 333 114 450q61 62 168 91.5t228 29.5q119 0 224.5 -29.5t166.5 -91.5q117 -120 117 -450q0 -333 -117 -453q-61 -62 -166.5 -91.5t-224.5 -29.5q-121 0 -228 29.5t-168 91.5q-114 117 -114 453zM279 1196l245 309h201l246 -309h-146l-200 215l-199 -215h-147z M293 543q0 -269 78 -350q81 -78 256 -78q171 0 252 78q77 80 77 350t-77 350q-79 76 -252 76q-177 0 -256 -76q-78 -81 -78 -350z" />
<glyph unicode="&#xf5;" horiz-adv-x="1249" d="M117 543q0 333 114 450q61 62 168 91.5t228 29.5q119 0 224.5 -29.5t166.5 -91.5q117 -120 117 -450q0 -333 -117 -453q-61 -62 -166.5 -91.5t-224.5 -29.5q-121 0 -228 29.5t-168 91.5q-114 117 -114 453zM293 543q0 -269 78 -350q81 -78 256 -78q171 0 252 78 q77 80 77 350t-77 350q-79 76 -252 76q-177 0 -256 -76q-78 -81 -78 -350zM297 1239q0 93 11.5 136t35.5 67q36 39 113 39q44 0 94 -19t86 -42.5t74.5 -42.5t62.5 -19q37 0 53 18q19 19 19 103h106q0 -94 -10.5 -136.5t-34.5 -66.5q-40 -37 -112 -37q-42 0 -91 19 t-85.5 41.5t-76 41.5t-65.5 19q-38 0 -55 -17q-19 -22 -19 -104h-106z" />
<glyph unicode="&#xf6;" horiz-adv-x="1249" d="M117 543q0 333 114 450q61 62 168 91.5t228 29.5q119 0 224.5 -29.5t166.5 -91.5q117 -120 117 -450q0 -333 -117 -453q-61 -62 -166.5 -91.5t-224.5 -29.5q-121 0 -228 29.5t-168 91.5q-114 117 -114 453zM293 543q0 -269 78 -350q81 -78 256 -78q171 0 252 78 q77 80 77 350t-77 350q-79 76 -252 76q-177 0 -256 -76q-78 -81 -78 -350zM340 1444q0 47 23 69.5t73 22.5q92 0 92 -94t-92 -94q-96 0 -96 96zM723 1442q0 48 23 71t73 23q92 0 92 -94t-92 -94q-96 0 -96 94z" />
<glyph unicode="&#xf7;" horiz-adv-x="1118" d="M141 477v129h836v-129h-836zM483 205q0 43 18 61.5t58 18.5t58 -18.5t18 -61.5q0 -41 -18 -60.5t-58 -19.5t-58 19.5t-18 60.5zM483 881q0 41 18 60.5t58 19.5t58 -19.5t18 -60.5t-18 -60.5t-58 -19.5t-58 19.5t-18 60.5z" />
<glyph unicode="&#xf8;" horiz-adv-x="1249" d="M117 -31l102 133q-102 121 -102 441q0 333 114 450q61 62 168 91.5t228 29.5q197 0 317 -67l51 67h140l-105 -135q105 -125 105 -436q0 -333 -117 -453q-61 -62 -166.5 -91.5t-224.5 -29.5q-196 0 -320 66l-51 -66h-139zM293 543q0 -201 41 -291l512 666q-81 51 -219 51 q-177 0 -256 -76q-78 -81 -78 -350zM406 166q84 -51 221 -51q171 0 252 78q77 80 77 350q0 199 -38 288z" />
<glyph unicode="&#xf9;" horiz-adv-x="1284" d="M162 322v761h174v-694q0 -164 49 -213q30 -30 73 -42.5t117 -12.5q81 0 178 37t185 102v823h174v-1083h-174v154q-75 -84 -189 -134.5t-229 -50.5q-188 0 -274 90q-41 39 -62.5 98.5t-21.5 164.5zM258 1505h215l250 -309h-158z" />
<glyph unicode="&#xfa;" horiz-adv-x="1284" d="M162 322v761h174v-694q0 -164 49 -213q30 -30 73 -42.5t117 -12.5q81 0 178 37t185 102v823h174v-1083h-174v154q-75 -84 -189 -134.5t-229 -50.5q-188 0 -274 90q-41 39 -62.5 98.5t-21.5 164.5zM557 1196l250 309h215l-307 -309h-158z" />
<glyph unicode="&#xfb;" horiz-adv-x="1284" d="M162 322v761h174v-694q0 -164 49 -213q30 -30 73 -42.5t117 -12.5q81 0 178 37t185 102v823h174v-1083h-174v154q-75 -84 -189 -134.5t-229 -50.5q-188 0 -274 90q-41 39 -62.5 98.5t-21.5 164.5zM297 1196l246 309h200l246 -309h-145l-201 215l-199 -215h-147z" />
<glyph unicode="&#xfc;" horiz-adv-x="1284" d="M162 322v761h174v-694q0 -164 49 -213q30 -30 73 -42.5t117 -12.5q81 0 178 37t185 102v823h174v-1083h-174v154q-75 -84 -189 -134.5t-229 -50.5q-188 0 -274 90q-41 39 -62.5 98.5t-21.5 164.5zM358 1444q0 92 97 92q92 0 92 -94t-92 -94q-97 0 -97 96zM741 1442 q0 48 23.5 71t73.5 23q92 0 92 -94t-92 -94q-97 0 -97 94z" />
<glyph unicode="&#xfd;" horiz-adv-x="1179" d="M72 1083h184q62 -210 158.5 -451t195.5 -442q195 437 322 893h176q-99 -347 -232 -670.5t-270 -574.5q-35 -67 -59 -106t-54 -74.5t-61.5 -52t-73 -26t-98.5 -9.5q-48 0 -104 18v148q52 -17 102 -17q63 0 102 28t89 120q29 48 71 135q-121 233 -243 521t-205 560z M518 1196l250 309h215l-307 -309h-158z" />
<glyph unicode="&#xfe;" horiz-adv-x="1294" d="M172 -399v1904h174v-561q153 170 389 170q216 0 322 -106q115 -112 121 -465q-6 -353 -123 -467q-104 -107 -322 -107q-112 0 -211.5 43t-175.5 127v-538h-174zM346 254q170 -131 342 -131q160 0 234 74q77 74 77 346q0 270 -77 344q-76 76 -234 76q-165 0 -342 -134 v-575z" />
<glyph unicode="&#xff;" horiz-adv-x="1179" d="M72 1083h184q62 -210 158.5 -451t195.5 -442q195 437 322 893h176q-99 -347 -232 -670.5t-270 -574.5q-35 -67 -59 -106t-54 -74.5t-61.5 -52t-73 -26t-98.5 -9.5q-48 0 -104 18v148q52 -17 102 -17q63 0 102 28t89 120q29 48 71 135q-121 233 -243 521t-205 560z M317 1444q0 92 97 92q92 0 92 -94t-92 -94q-97 0 -97 96zM700 1442q0 48 23.5 71t73.5 23q92 0 92 -94t-92 -94q-97 0 -97 94z" />
<glyph unicode="&#x152;" horiz-adv-x="2318" d="M150 719q0 210 32.5 343.5t114.5 215.5q73 75 207.5 115.5t294.5 40.5h1353v-156h-806v-473h741v-154h-741v-495h806v-156h-1353q-160 0 -294.5 40.5t-207.5 115.5q-81 80 -114 216t-33 347zM340 719q0 -189 24 -296.5t85 -168.5q98 -98 370 -98h342v1122h-342 q-272 0 -370 -98q-61 -61 -85 -166.5t-24 -294.5z" />
<glyph unicode="&#x153;" horiz-adv-x="2002" d="M117 543q0 333 114 450q61 62 168 91.5t228 29.5q254 0 372 -123q28 -28 45 -63q20 38 43 61q120 125 349 125q122 0 206 -27t148 -92q61 -59 81.5 -170.5t20.5 -289.5h-757q0 -264 77 -338q40 -40 118 -60t173 -20q178 0 336 47v-141q-139 -54 -369 -54q-265 0 -383 121 q-27 30 -43 64q-18 -37 -45 -64q-118 -121 -372 -121q-121 0 -228 29.5t-168 91.5q-114 117 -114 453zM293 543q0 -269 78 -350q81 -78 256 -78q171 0 252 78q77 80 77 350t-77 350q-79 76 -252 76q-177 0 -256 -76q-78 -81 -78 -350zM1139 659h583q-3 95 -17 153.5 t-46 90.5q-74 74 -225 74q-152 0 -226 -74q-60 -60 -69 -244z" />
<glyph unicode="&#x178;" horiz-adv-x="1445" d="M78 1434h196q71 -185 196 -393t259 -367q132 157 257 365t198 395h184q-163 -444 -553 -924v-510h-186v512q-386 475 -551 922zM438 1677q0 95 97 95q92 0 92 -97q0 -92 -92 -92q-97 0 -97 94zM821 1677q0 95 97 95q92 0 92 -97q0 -92 -92 -92q-50 0 -73.5 23t-23.5 71z " />
<glyph unicode="&#x2c6;" horiz-adv-x="1024" d="M166 1196l246 309h200l246 -309h-145l-201 215l-199 -215h-147z" />
<glyph unicode="&#x2dc;" horiz-adv-x="1024" d="M184 1239q0 93 11.5 136t35.5 67q36 39 113 39q44 0 94 -19t86.5 -42.5t75 -42.5t62.5 -19q37 0 53 18q18 18 18 103h107q0 -94 -10.5 -136.5t-34.5 -66.5q-40 -37 -113 -37q-53 0 -116 30.5t-116.5 60.5t-84.5 30q-39 0 -56 -17q-18 -21 -18 -104h-107z" />
<glyph unicode="&#x3bc;" horiz-adv-x="1316" d="M180 -399v1482h176v-694q0 -163 47 -213q30 -30 73.5 -42.5t117.5 -12.5q81 0 177.5 37t184.5 102v823h177v-1083h-177v152q-75 -82 -185.5 -132.5t-213.5 -50.5q-180 0 -272 88l71 -456h-176z" />
<glyph unicode="&#x2000;" horiz-adv-x="933" />
<glyph unicode="&#x2001;" horiz-adv-x="1866" />
<glyph unicode="&#x2002;" horiz-adv-x="933" />
<glyph unicode="&#x2003;" horiz-adv-x="1866" />
<glyph unicode="&#x2004;" horiz-adv-x="622" />
<glyph unicode="&#x2005;" horiz-adv-x="466" />
<glyph unicode="&#x2006;" horiz-adv-x="311" />
<glyph unicode="&#x2007;" horiz-adv-x="311" />
<glyph unicode="&#x2008;" horiz-adv-x="233" />
<glyph unicode="&#x2009;" horiz-adv-x="373" />
<glyph unicode="&#x200a;" horiz-adv-x="103" />
<glyph unicode="&#x2010;" horiz-adv-x="559" d="M53 489v125h451v-125h-451z" />
<glyph unicode="&#x2011;" horiz-adv-x="559" d="M53 489v125h451v-125h-451z" />
<glyph unicode="&#x2012;" horiz-adv-x="559" d="M53 489v125h451v-125h-451z" />
<glyph unicode="&#x2013;" horiz-adv-x="1024" d="M0 489v125h1024v-125h-1024z" />
<glyph unicode="&#x2014;" horiz-adv-x="2048" d="M0 489v125h2048v-125h-2048z" />
<glyph unicode="&#x2018;" horiz-adv-x="559" d="M113 946l190 488h141l-151 -488h-180z" />
<glyph unicode="&#x2019;" horiz-adv-x="559" d="M113 946l151 488h182l-192 -488h-141z" />
<glyph unicode="&#x201a;" horiz-adv-x="559" d="M106 -289l152 490h162l-195 -490h-119z" />
<glyph unicode="&#x201c;" horiz-adv-x="907" d="M113 946l190 488h141l-151 -488h-180zM463 946l190 488h142l-152 -488h-180z" />
<glyph unicode="&#x201d;" horiz-adv-x="907" d="M113 946l151 488h182l-192 -488h-141zM463 946l151 488h183l-193 -488h-141z" />
<glyph unicode="&#x201e;" horiz-adv-x="907" d="M106 -289l152 490h162l-195 -490h-119zM457 -289l151 490h162l-195 -490h-118z" />
<glyph unicode="&#x2022;" horiz-adv-x="559" d="M123 551q0 158 156 158q81 0 120 -39t39 -119q0 -158 -159 -158q-156 0 -156 158z" />
<glyph unicode="&#x2026;" horiz-adv-x="1413" d="M174 94q0 58 25.5 84.5t79.5 26.5q56 0 81 -26.5t25 -84.5q0 -56 -25.5 -82t-80.5 -26q-54 0 -79.5 26t-25.5 82zM610 94q0 58 25.5 84.5t79.5 26.5q56 0 81 -26.5t25 -84.5q0 -56 -25.5 -82t-80.5 -26q-54 0 -79.5 26t-25.5 82zM1044 94q0 58 25.5 84.5t79.5 26.5 q56 0 81 -26.5t25 -84.5q0 -56 -25.5 -82t-80.5 -26q-54 0 -79.5 26t-25.5 82z" />
<glyph unicode="&#x202f;" horiz-adv-x="373" />
<glyph unicode="&#x2030;" horiz-adv-x="2410" d="M35 1024q0 135 17 223.5t65 136.5q35 33 96.5 50.5t126.5 17.5q66 0 128 -17.5t97 -50.5q48 -48 65 -136.5t17 -223.5q0 -155 -16.5 -252.5t-67.5 -148.5q-33 -33 -94.5 -49.5t-128.5 -16.5q-66 0 -127 16.5t-96 49.5q-49 51 -65.5 148.5t-16.5 252.5zM168 1024 q0 -274 51 -322q33 -38 121 -38q87 0 123 36q51 51 51 324q0 228 -51 276q-37 37 -123 37q-87 0 -121 -37q-51 -48 -51 -276zM344 0l891 1434h147l-890 -1434h-148zM1081 451q0 135 17 223.5t65 136.5q35 33 96.5 50.5t126.5 17.5q66 0 128.5 -17.5t97.5 -50.5 q48 -48 65 -136.5t17 -223.5q0 -155 -16.5 -253t-67.5 -149q-65 -65 -224 -65q-155 0 -223 65q-49 51 -65.5 149t-16.5 253zM1214 451q0 -273 52 -322q34 -39 120 -39t123 37q52 52 52 324q0 227 -52 276q-37 37 -123 37t-120 -37q-52 -49 -52 -276zM1763 451 q0 135 17 223.5t65 136.5q35 33 96.5 50.5t126.5 17.5q66 0 128.5 -17.5t97.5 -50.5q48 -48 65 -136.5t17 -223.5q0 -155 -16.5 -253t-67.5 -149q-65 -65 -224 -65q-155 0 -223 65q-49 51 -65.5 149t-16.5 253zM1896 451q0 -273 52 -322q34 -39 120 -39t123 37q52 52 52 324 q0 227 -52 276q-37 37 -123 37t-120 -37q-52 -49 -52 -276z" />
<glyph unicode="&#x2039;" horiz-adv-x="559" d="M66 551l260 422h157l-252 -422l252 -424h-157z" />
<glyph unicode="&#x203a;" horiz-adv-x="559" d="M74 127l252 422l-252 424h157l263 -424l-263 -422h-157z" />
<glyph unicode="&#x2044;" horiz-adv-x="366" d="M-336 0l891 1434h147l-890 -1434h-148z" />
<glyph unicode="&#x205f;" horiz-adv-x="466" />
<glyph unicode="&#x2070;" horiz-adv-x="679" d="M35 1208q0 135 17 224t65 137q35 33 96.5 50t126.5 17q67 0 128.5 -17t96.5 -50q48 -48 65 -137t17 -224q0 -155 -16.5 -252.5t-67.5 -148.5q-33 -33 -94.5 -49.5t-128.5 -16.5q-66 0 -127 16.5t-96 49.5q-49 51 -65.5 148.5t-16.5 252.5zM168 1208q0 -273 51 -321 q34 -39 121 -39q86 0 123 37q51 51 51 323q0 229 -51 277q-37 37 -123 37q-87 0 -121 -37q-51 -48 -51 -277z" />
<glyph unicode="&#x2074;" horiz-adv-x="677" d="M29 977v82l407 559h119v-533h109v-108h-109v-219h-131v219h-395zM172 1085h252v353z" />
<glyph unicode="&#x2075;" horiz-adv-x="679" d="M72 776v105q108 -31 223 -31q121 0 164 43q37 41 37 111q0 63 -37 100q-27 27 -107 38t-248 11v465h484v-109h-365v-245q153 -4 230 -22.5t114 -55.5q60 -60 60 -182q0 -124 -66 -193q-72 -72 -266 -72q-139 0 -223 37z" />
<glyph unicode="&#x2076;" horiz-adv-x="681" d="M49 1026q0 87 32 166.5t124 185.5l203 240h151l-266 -307l-6 -6q36 4 55 4q153 0 221 -68q70 -70 70 -215q0 -152 -70 -219q-68 -68 -221 -68t-221 68q-72 69 -72 219zM184 1028q0 -102 41 -143q37 -37 117 -37q77 0 117 37q39 42 39 143q0 99 -39 141q-42 39 -117 39 q-78 0 -117 -39q-41 -41 -41 -141z" />
<glyph unicode="&#x2077;" horiz-adv-x="679" d="M55 1509v109h572v-84l-422 -776h-144l410 751h-416z" />
<glyph unicode="&#x2078;" horiz-adv-x="677" d="M45 983q0 109 57 166q34 34 99 47q-55 16 -86 47q-52 52 -52 160t58 166q63 63 219 63t219 -63q57 -57 57 -166q0 -107 -53 -160q-31 -31 -84 -47q65 -13 99 -47q57 -57 57 -166q0 -114 -62 -176q-71 -68 -233 -68q-163 0 -231 68q-64 64 -64 176zM180 997q0 -73 39 -112 q37 -37 121 -37t121 37t37 112q0 76 -37 113t-121 37t-121 -37q-39 -39 -39 -113zM199 1382q0 -80 32 -108q30 -33 109 -33q81 0 111 33q28 28 28 108q0 78 -30 113q-31 31 -109 31t-109 -31q-32 -37 -32 -113z" />
<glyph unicode="&#x2079;" horiz-adv-x="681" d="M49 1341q0 151 72 220q67 67 221 67t221 -67q70 -67 70 -220v-2q0 -87 -31 -166t-125 -184l-203 -239h-149l266 307l6 6q-36 -4 -55 -4q-154 0 -221 67q-72 72 -72 215zM184 1339q0 -100 41 -141q39 -39 117 -39q75 0 117 39q39 42 39 141q0 102 -39 144q-40 37 -117 37 q-80 0 -117 -37q-41 -41 -41 -144z" />
<glyph unicode="&#x2080;" horiz-adv-x="679" d="M35 266q0 135 17 224t65 137q35 33 96.5 50t126.5 17q67 0 128.5 -17t96.5 -50q48 -48 65 -137t17 -224q0 -155 -16.5 -252.5t-67.5 -148.5q-33 -33 -94.5 -49.5t-128.5 -16.5q-66 0 -127 16.5t-96 49.5q-49 51 -65.5 148.5t-16.5 252.5zM168 266q0 -273 51 -321 q34 -39 121 -39q86 0 123 37q51 51 51 323q0 229 -51 277q-37 37 -123 37q-87 0 -121 -37q-51 -48 -51 -277z" />
<glyph unicode="&#x2081;" horiz-adv-x="679" d="M104 324v149l271 203h106v-860h-129v694z" />
<glyph unicode="&#x2082;" horiz-adv-x="681" d="M59 -100l291 286q80 83 102.5 133t22.5 123q0 66 -35 105q-37 37 -153 37q-100 0 -215 -39v108q96 41 231 41q179 0 248 -69q30 -30 41.5 -70t11.5 -104q0 -101 -30.5 -164t-122.5 -158l-211 -205h370v-108h-551v84z" />
<glyph unicode="&#x2083;" horiz-adv-x="679" d="M57 567v109h547v-84l-291 -285q187 -11 250 -71q64 -67 64 -177q0 -66 -15.5 -109.5t-50.5 -80.5q-72 -72 -272 -72q-139 0 -223 37v105q109 -31 221 -31q132 0 172 43q39 39 39 108q0 66 -37 99q-26 26 -99 37.5t-217 11.5v90l281 270h-369z" />
<glyph unicode="&#x2084;" horiz-adv-x="677" d="M29 35v82l407 559h119v-533h109v-108h-109v-219h-131v219h-395zM172 143h252v353z" />
<glyph unicode="&#x2085;" horiz-adv-x="679" d="M72 -61q108 -31 223 -31q121 0 164 43q37 41 37 110q0 64 -37 101q-27 27 -107 38t-248 11v465h484v-109h-365v-245q153 -4 230 -22.5t114 -55.5q60 -60 60 -183q0 -66 -15.5 -110.5t-50.5 -81.5q-72 -72 -266 -72q-139 0 -223 37v105z" />
<glyph unicode="&#x2086;" horiz-adv-x="681" d="M49 84q0 87 32 166.5t124 185.5l203 240h151l-266 -307l-6 -7q45 5 55 5q153 0 221 -68q70 -70 70 -215q0 -152 -70 -219q-68 -68 -221 -68t-221 68q-72 69 -72 219zM184 86q0 -102 41 -143q37 -37 117 -37q77 0 117 37q39 42 39 143q0 99 -39 141q-42 39 -117 39 q-78 0 -117 -39q-41 -41 -41 -141z" />
<glyph unicode="&#x2087;" horiz-adv-x="679" d="M55 567v109h572v-84l-422 -776h-144l410 751h-416z" />
<glyph unicode="&#x2088;" horiz-adv-x="677" d="M45 41q0 109 57 166q34 34 99 47q-55 16 -86 47q-52 52 -52 160t58 166q63 63 219 63t219 -63q57 -57 57 -166q0 -107 -53 -160q-31 -31 -84 -47q65 -13 99 -47q57 -57 57 -166q0 -114 -62 -176q-71 -68 -233 -68q-163 0 -231 68q-64 64 -64 176zM180 55q0 -73 39 -112 q37 -37 121 -37t121 37t37 112q0 76 -37 113t-121 37t-121 -37q-39 -39 -39 -113zM199 440q0 -80 32 -108q30 -33 109 -33q81 0 111 33q28 28 28 108q0 78 -30 113q-31 31 -109 31t-109 -31q-32 -37 -32 -113z" />
<glyph unicode="&#x2089;" horiz-adv-x="681" d="M49 399q0 150 72 219q68 68 221 68t221 -68q70 -67 70 -219v-2q0 -87 -31 -166t-125 -184l-203 -240h-149l266 308l6 6q-36 -4 -55 -4q-154 0 -221 67q-72 72 -72 215zM184 397q0 -100 41 -141q39 -39 117 -39q75 0 117 39q39 42 39 141q0 102 -39 144q-40 37 -117 37 q-80 0 -117 -37q-41 -41 -41 -144z" />
<glyph unicode="&#x20ac;" d="M49 489v132h178q-2 45 -2 137v59h-176v131h182q16 293 127 406q55 55 157 82.5t214 27.5q183 0 289 -45v-143q-127 39 -262 39q-187 0 -256 -72q-68 -65 -84 -295h538v-131h-544v-59q0 -94 2 -137h542v-132h-536q19 -233 82 -299q74 -71 256 -71q144 0 274 39v-142 q-106 -45 -301 -45q-111 0 -213.5 27.5t-157.5 81.5q-58 58 -86.5 159.5t-40.5 249.5h-182z" />
<glyph unicode="&#x2122;" horiz-adv-x="1927" d="M37 1325v109h770v-109h-322v-752h-129v752h-319zM930 573v861h106l314 -410l307 410h106v-861h-129v635l-286 -379l-295 381v-637h-123z" />
<glyph unicode="&#x25fc;" horiz-adv-x="1085" d="M0 0v1085h1085v-1085h-1085z" />
<glyph unicode="&#xfb01;" horiz-adv-x="1267" d="M84 940v143h162v54q0 139 15.5 209.5t55.5 111.5q41 41 100.5 59.5t151.5 18.5q131 0 205 -29v-141q-71 23 -164 23q-105 0 -151 -43q-21 -21 -29 -65t-8 -144v-54h305v-143h-305v-940h-176v940h-162zM909 1442q0 49 23 71.5t78 22.5q54 0 75 -22.5t21 -71.5 q0 -48 -21.5 -71t-74.5 -23q-55 0 -78 23t-23 71zM920 0v1083h176v-1083h-176z" />
<glyph unicode="&#xfb02;" horiz-adv-x="1521" d="M84 940v143h162v54q0 139 15.5 209.5t55.5 111.5q41 41 100.5 59.5t151.5 18.5q131 0 205 -29v-141q-71 23 -164 23q-105 0 -151 -43q-21 -21 -29 -65t-8 -144v-54h305v-143h-305v-940h-176v940h-162zM961 401v1104h178v-1108q0 -132 5.5 -175t26.5 -64q41 -41 119 -41 q82 0 170 35v-144q-93 -39 -209 -39q-145 0 -215 70q-44 44 -59.5 122.5t-15.5 239.5z" />
<glyph unicode="&#xfb03;" horiz-adv-x="2013" d="M84 940v143h162v54q0 139 15.5 209.5t55.5 111.5q41 41 100.5 59.5t151.5 18.5q131 0 205 -29v-141q-71 23 -164 23q-105 0 -151 -43q-21 -21 -29 -65t-8 -144v-54h278v-143h-278v-940h-176v940h-162zM844 940v143h147v54q0 139 16 209t56 112q78 78 254 78 q129 0 203 -29v-141q-67 23 -164 23q-106 0 -152 -43q-21 -21 -29 -65t-8 -144v-54h308v-143h-308v-940h-176v940h-147zM1655 1442q0 49 22.5 71.5t77.5 22.5q54 0 76 -22.5t22 -71.5q0 -48 -22 -71t-76 -23q-55 0 -77.5 23t-22.5 71zM1667 0v1083h174v-1083h-174z" />
<glyph unicode="&#xfb04;" horiz-adv-x="2267" d="M84 940v143h162v54q0 139 15.5 209.5t55.5 111.5q41 41 100.5 59.5t151.5 18.5q131 0 205 -29v-141q-71 23 -164 23q-105 0 -151 -43q-21 -21 -29 -65t-8 -144v-54h278v-143h-278v-940h-176v940h-162zM842 940v143h149v54q0 139 16 209t56 112q78 78 254 78 q129 0 203 -29v-141q-67 23 -164 23q-106 0 -152 -43q-21 -21 -29 -65t-8 -144v-54h308v-143h-308v-940h-176v940h-149zM1708 401v1104h176v-1108q0 -130 6 -174t29 -65q38 -41 119 -41q80 0 168 35v-144q-90 -39 -209 -39q-145 0 -215 70q-44 44 -59 122t-15 240z" />
<glyph horiz-adv-x="2629" d="M138 959q-18 105 0 210t65 152q76 74 193 105.5t280 31.5q248 0 438 -69v-146q-206 62 -420 62q-262 0 -346 -84q-40 -40 -40 -147.5t40 -147.5q33 -33 144.5 -70t229 -65t232 -68t152.5 -78q53 -52 71.5 -161t-2 -216.5t-71.5 -158.5q-134 -134 -483 -134 q-303 0 -474 70v145q219 -61 465 -61q272 0 351 82q42 43 42 158t-42 157q-28 29 -135 61.5t-223.5 59t-235 69.5t-166.5 91q-47 47 -65 152zM1453 959q-18 105 0 210t65 152q76 74 193 105.5t280 31.5q248 0 438 -69v-146q-206 62 -420 62q-262 0 -346 -84 q-40 -40 -40 -147.5t40 -147.5q33 -33 144.5 -70t229 -65t232 -68t152.5 -78q53 -52 71.5 -161t-2 -216.5t-71.5 -158.5q-134 -134 -484 -134q-302 0 -473 70v145q219 -61 465 -61q271 0 350 82q42 43 42 158t-42 157q-28 29 -135 61.5t-223 59t-234.5 69.5t-166.5 91 q-47 47 -65 152z" />
<glyph horiz-adv-x="518" d="M160 1442q0 49 22.5 71.5t77.5 22.5q54 0 76 -22.5t22 -71.5q0 -48 -22 -71t-76 -23q-55 0 -77.5 23t-22.5 71zM172 0v1083h174v-1083h-174z" />
<glyph horiz-adv-x="559" d="M172 1339q0 109 107 109q55 0 79.5 -26.5t24.5 -82.5q0 -59 -24.5 -84.5t-79.5 -25.5t-81 26t-26 84zM188 0l21 987h141l21 -987h-183z" />
<glyph horiz-adv-x="983" d="M121 354q0 88 24 167.5t66 121.5q32 32 57.5 50.5t109.5 52.5t222 71l2 189h150l2 -295q-147 -36 -238.5 -68t-122.5 -51.5t-55 -44.5q-25 -25 -41 -79t-16 -112t16 -108.5t41 -75.5q60 -57 240 -57q143 0 331 37v-146q-152 -37 -348 -37q-251 0 -350 99q-42 42 -66 120 t-24 166zM569 1339q0 109 107 109q54 0 79 -26.5t25 -82.5q0 -58 -25 -84t-79 -26q-55 0 -81 26t-26 84z" />
<glyph horiz-adv-x="559" d="M53 666v125h451v-125h-451z" />
<glyph horiz-adv-x="559" d="M66 727l260 422h157l-252 -422l252 -424h-157z" />
<glyph horiz-adv-x="559" d="M74 303l252 422l-252 424h157l263 -424l-263 -422h-157z" />
<glyph horiz-adv-x="952" d="M66 727l260 422h157l-252 -422l252 -424h-157zM461 727l260 422h158l-252 -422l252 -424h-158z" />
<glyph horiz-adv-x="942" d="M74 303l252 422l-252 424h157l263 -424l-263 -422h-157zM457 303l252 422l-252 424h157l263 -424l-263 -422h-157z" />
<glyph horiz-adv-x="798" d="M180 745q0 493 318 846h151q-152 -185 -233.5 -388.5t-81.5 -457.5q0 -480 315 -864h-151q-149 166 -233.5 384.5t-84.5 479.5z" />
<glyph horiz-adv-x="798" d="M147 -113q153 185 235.5 388t82.5 458q0 480 -318 864h154q315 -354 315 -864q0 -492 -315 -846h-154z" />
<glyph horiz-adv-x="796" d="M53 680v125q89 0 125.5 8t59.5 31q22 22 33.5 65t11.5 142v108q0 140 21 219t69 127q92 92 362 92v-124q-196 0 -254 -58q-30 -30 -41.5 -85t-11.5 -171v-106q0 -99 -14.5 -148.5t-40.5 -83.5q-16 -24 -39 -40.5t-68 -39.5q79 -37 109 -79q25 -35 39 -83.5t14 -146.5 v-104q0 -115 12 -171t41 -85q60 -60 254 -60v-125q-265 0 -362 93q-47 47 -68.5 126.5t-21.5 221.5v106q0 101 -11 143.5t-34 63.5q-21 22 -59 30.5t-126 8.5z" />
<glyph horiz-adv-x="796" d="M61 12q198 0 254 58q30 28 42 84.5t12 171.5v104q0 100 14 149t41 83q16 24 38.5 40t67.5 39q-77 36 -108 80q-25 34 -39 83.5t-14 146.5v106q0 114 -12.5 169.5t-41.5 86.5q-61 61 -254 57v125q268 3 363 -92q47 -47 68.5 -126t21.5 -220v-108q0 -99 11 -142.5t34 -64.5 q20 -22 58 -29.5t128 -7.5v-125q-88 0 -125 -8.5t-61 -32.5q-22 -22 -33.5 -64.5t-11.5 -142.5v-106q0 -142 -21 -221.5t-69 -127.5q-90 -90 -363 -90v125z" />
<glyph horiz-adv-x="747" d="M201 -113v1710h485v-124h-340v-1461h340v-125h-485z" />
<glyph horiz-adv-x="747" d="M61 12h340v1461h-340v124h486v-1710h-486v125z" />
<glyph horiz-adv-x="1024" d="M0 666v125h1024v-125h-1024z" />
<glyph horiz-adv-x="2048" d="M0 666v125h2048v-125h-2048z" />
<glyph horiz-adv-x="559" d="M123 727q0 158 156 158q81 0 120 -39t39 -119q0 -158 -159 -158q-156 0 -156 158z" />
<glyph horiz-adv-x="559" d="M174 733q0 58 25.5 84.5t79.5 26.5q56 0 81 -26.5t25 -84.5q0 -56 -25.5 -82t-80.5 -26q-54 0 -79.5 26t-25.5 82z" />
<glyph horiz-adv-x="1974" d="M133 737q0 234 66 407t172 279q205 205 628 205q422 0 627 -205q217 -221 217 -549q0 -171 -42 -299t-109 -200q-102 -105 -258 -105q-62 0 -113.5 13.5t-95 49.5t-60.5 93q-71 -68 -163 -112t-179 -44q-79 0 -140 28t-93 81q-73 115 -21 360q26 126 67 220t85 133 q97 92 262 92q80 0 156 -34.5t121 -92.5l20 102h150l-123 -581q-24 -108 16.5 -157.5t118.5 -49.5q109 0 182 82q45 51 75 166.5t30 254.5q0 153 -51 277t-130 203q-86 86 -234 130t-315 44t-315.5 -44t-234.5 -130q-85 -85 -143 -249.5t-58 -367.5q0 -205 54 -367.5 t138 -246.5q86 -86 237.5 -131t336.5 -45q329 0 569 92v-92q-250 -101 -563 -101q-220 0 -389 51.5t-271 153.5q-103 103 -164.5 276t-62.5 410zM698 554q2 -71 25 -99q45 -58 147 -58q119 0 285 121q4 48 10 72l76 373q-105 92 -231 92q-114 0 -176 -56q-71 -67 -115 -260 q-23 -114 -21 -185z" />
<glyph horiz-adv-x="1114" d="M61 758q0 223 28.5 370t105.5 226q55 55 153.5 82.5t208.5 27.5q108 0 207.5 -28t155.5 -82q78 -78 106.5 -225t28.5 -371q0 -127 -4.5 -217.5t-18 -184.5t-41.5 -163t-71 -113q-55 -54 -154.5 -81.5t-208.5 -27.5t-208 27.5t-154 81.5q-81 83 -107.5 248t-26.5 430z M246 758q0 -480 90 -570q70 -67 221 -67q152 0 219 67q92 89 92 570q0 397 -92 489q-66 66 -219 66q-152 0 -221 -66q-90 -93 -90 -489zM465 713q0 54 22 78t70 24q50 0 72 -24t22 -78t-22.5 -78.5t-71.5 -24.5q-48 0 -70 24.5t-22 78.5z" />
<glyph d="M89.5 962.5q-16.5 107.5 0 214.5t60.5 152q105 113 356 123v166h141v-166q192 -11 328 -70v-145q-156 53 -328 59v-508q129 -37 206.5 -67t109.5 -66q48 -53 64.5 -167.5t-3 -226t-66.5 -161.5q-94 -102 -331 -116v-162h-140v158q-236 9 -391 77v146q209 -63 391 -68v527 q-271 73 -337 147q-44 46 -60.5 153.5zM260 1074.5q0 -110.5 35 -150.5q41 -44 211 -95v467q-154 -13 -211 -73q-35 -38 -35 -148.5zM627 139q141 16 190 68q40 44 41 168t-39 168q-29 31 -192 80v-484z" />
<glyph d="M49 489v132h178q-2 45 -2 137v59h-176v131h182q16 293 127 406q55 55 157 82.5t214 27.5q183 0 289 -45v-143q-127 39 -262 39q-187 0 -256 -72q-68 -65 -84 -295h538v-131h-544v-59q0 -94 2 -137h542v-132h-536q19 -233 82 -299q74 -71 256 -71q144 0 274 39v-142 q-106 -45 -301 -45q-111 0 -213.5 27.5t-157.5 81.5q-58 58 -86.5 159.5t-40.5 249.5h-182z" />
<glyph d="M88 721q0 151 30.5 269t90.5 179q108 111 375 121v328h139v-328q171 -6 281 -51v-147q-130 41 -281 47v-834q147 6 287 49v-149q-112 -49 -287 -55v-328h-139v328q-269 11 -375 122q-60 60 -90.5 178t-30.5 271zM270 721q0 -254 82 -336q67 -67 232 -80v832 q-167 -13 -232 -78q-82 -82 -82 -338z" />
<glyph d="M70 0v150h229v503h-215v131h215v185q0 154 19 243.5t71 141.5q107 110 326 110q166 0 286 -55v-147q-122 43 -253 43q-151 0 -211 -60q-36 -36 -47 -97.5t-11 -180.5v-183h457v-131h-457v-503h547v-150h-956z" />
<glyph d="M55 1434h197q171 -298 311 -476q135 168 311 476h185q-150 -258 -316 -486h277v-131h-373v-196h373v-132h-373v-489h-182v489h-369v132h369v196h-369v131h275q-156 210 -316 486z" />
<glyph horiz-adv-x="1155" d="M82 758q0 224 28 370.5t105 225.5q55 55 154 82.5t209 27.5q108 0 207 -28t155 -82q78 -78 106.5 -225t28.5 -371q0 -127 -4.5 -217.5t-18 -184.5t-41.5 -163t-71 -113q-55 -54 -154 -81.5t-208 -27.5t-208.5 27.5t-154.5 81.5q-81 83 -107 247.5t-26 430.5zM266 758 q0 -480 90 -570q70 -67 222 -67t219 67q92 89 92 570q0 397 -92 489q-66 66 -219 66t-222 -66q-90 -93 -90 -489z" />
<glyph horiz-adv-x="913" d="M80 885v209l452 340h148v-1434h-182v1200z" />
<glyph horiz-adv-x="1118" d="M96 0v119l479 483q102 106 151.5 180.5t63 131t13.5 145.5q0 75 -16.5 117t-47.5 73q-64 64 -266 64q-147 0 -352 -64v150q165 65 375 65q291 0 399 -108q51 -51 70.5 -115.5t19.5 -169.5q0 -88 -11.5 -151.5t-45.5 -128.5t-82.5 -124.5t-134.5 -148.5l-369 -368h655 v-150h-901z" />
<glyph d="M96 1284v150h891v-119l-500 -504q331 -17 431 -117q106 -109 106 -293q0 -109 -24.5 -182t-81.5 -131q-119 -119 -445 -119q-221 0 -364 58v147q165 -53 362 -53q225 0 305 80q66 66 66 200q0 117 -66 183q-46 46 -171 67t-361 21v121l499 491h-647z" />
<glyph d="M43 375v119l696 940h156v-910h192v-149h-192v-375h-180v375h-672zM250 524h465v639z" />
<glyph d="M119 27v147q168 -53 364 -53q211 0 291 80q68 68 68 202q0 119 -66 185q-49 49 -187 68.5t-417 19.5v758h791v-150h-621v-457q253 -4 385.5 -33.5t196.5 -93.5q100 -103 100 -297q0 -110 -24.5 -183.5t-81.5 -131.5q-119 -119 -435 -119q-218 0 -364 58z" />
<glyph d="M82 440v2q0 144 50 271t198 297l354 424h217l-442 -516q-3 -4 -9.5 -11.5t-9.5 -11.5q55 12 119 12q250 0 359 -112q116 -116 116 -355q0 -242 -116 -358q-110 -113 -359 -113q-250 0 -360 113q-117 117 -117 358zM270 444q0 -185 74 -256q69 -69 215 -69q144 0 213 69 q74 71 74 256q0 178 -76 254q-67 70 -211 70q-146 0 -213 -70q-76 -76 -76 -254z" />
<glyph d="M98 1284v150h926v-119l-717 -1315h-201l705 1284h-713z" />
<glyph horiz-adv-x="1157" d="M98 375q0 179 97 276q61 61 170 82q-95 22 -148 78q-88 88 -88 268q0 185 96 281q104 104 355 104q245 0 352 -104q96 -96 96 -281q0 -180 -88 -268q-53 -56 -145 -78q111 -22 168 -82q96 -93 96 -276q0 -188 -105 -293q-110 -113 -374 -113q-267 0 -377 113 q-105 105 -105 293zM287 391q0 -138 69 -207q62 -65 224 -65q156 0 221 65q69 69 69 207q0 136 -69 205q-66 66 -221 66q-158 0 -224 -66q-69 -69 -69 -205zM317 1055q0 -138 62 -197q56 -59 201 -59q141 0 200 59q60 60 60 197q0 140 -60 200t-200 60q-144 0 -201 -60 q-62 -59 -62 -200z" />
<glyph d="M82 993q0 242 117 359q109 112 360 112q250 0 359 -112q116 -116 116 -359v-2q0 -94 -17 -170t-73.5 -178t-157.5 -219l-354 -424h-217l442 516q3 4 9.5 11.5t9.5 11.5q-60 -13 -117 -13q-250 0 -360 113q-117 117 -117 354zM270 989q0 -178 76 -254q66 -69 213 -69 q145 0 211 69q76 76 76 254q0 182 -74 256q-70 70 -213 70q-145 0 -215 -70q-74 -74 -74 -256z" />
<glyph d="M89.5 833.5q-16.5 95.5 0 190.5t60.5 135q107 99 356 109v139h141v-139q194 -11 328 -62v-145q-159 45 -328 51v-424q127 -31 205.5 -57t110.5 -56q48 -47 64.5 -147.5t-3 -199t-66.5 -142.5q-93 -88 -331 -102v-140h-140v138q-243 9 -391 67v146q204 -55 391 -60v436 q-269 64 -337 127q-44 40 -60.5 135.5zM251 928q0 -94 36 -125q40 -35 219 -80v389q-159 -10 -219 -59q-36 -31 -36 -125zM627 139q150 10 200 54q40 35 41 139t-39 139q-31 27 -202 68v-400z" />
<glyph d="M49 422v121h176v67q0 66 2 97h-178v122h184q21 259 125 353q55 50 156 74t215 24q183 0 301 -41v-143q-133 34 -274 34q-89 0 -158 -16t-102 -43q-62 -59 -78 -242h536v-122h-542q-2 -31 -2 -97v-67h544v-121h-538q17 -183 80 -240q64 -61 260 -61q128 0 262 35v-142 q-96 -41 -289 -41q-112 0 -214 25t-157 74q-108 100 -127 350h-182z" />
<glyph d="M88 627q0 131 30.5 233t90.5 156q106 95 348 108v285h141v-283q181 -6 306 -47v-147q-141 38 -306 41v-690q167 3 312 45v-150q-118 -45 -312 -51v-283h-141v285q-245 14 -348 109q-60 54 -90.5 156t-30.5 233zM270 627q0 -209 82 -277q62 -51 205 -63v682 q-144 -13 -205 -62q-82 -68 -82 -280z" />
<glyph d="M70 0v150h229v415h-215v121h215v160q0 133 19.5 211.5t70.5 122.5q112 98 326 98q155 0 286 -49v-148q-121 37 -253 37q-153 0 -211 -49q-36 -29 -47 -78.5t-11 -146.5v-158h457v-121h-457v-415h547v-150h-956z" />
<glyph d="M55 1249h197q211 -301 311 -407q112 118 311 407h185q-138 -216 -314 -420h275v-122h-373v-164h373v-121h-373v-422h-182v422h-369v121h369v164h-369v122h273q-177 208 -314 420z" />
<glyph horiz-adv-x="1114" d="M61 653q0 193 29 322t109 205q54 51 151 75.5t207 24.5t207 -24.5t151 -75.5q80 -76 110 -205.5t30 -321.5q0 -220 -29 -363t-111 -220q-53 -52 -150 -76.5t-208 -24.5t-208 24.5t-150 76.5q-79 72 -108.5 219t-29.5 364zM246 653q0 -393 94 -471q64 -61 217 -61 q149 0 217 61q94 82 94 471q0 329 -94 414q-68 61 -217 61q-153 0 -217 -61q-94 -85 -94 -414z" />
<glyph d="M172 743v209l453 297h147v-1249h-182v1026z" />
<glyph horiz-adv-x="1118" d="M96 0v119l473 413q142 130 184 200t42 165q0 116 -60 172q-66 57 -262 57q-148 0 -352 -57v152q165 59 375 59q138 0 237.5 -26.5t147.5 -73.5q50 -47 72 -106t22 -165q0 -88 -26.5 -155.5t-81.5 -131.5t-167 -165l-348 -307h645v-150h-901z" />
<glyph d="M96 1100v149h891v-119l-500 -503q331 -17 431 -117q106 -109 106 -293q0 -109 -24.5 -182t-81.5 -131q-119 -119 -445 -119q-224 0 -364 57v148q165 -53 362 -53q226 0 305 79q66 66 66 201q0 116 -66 182q-46 46 -171 67t-361 21v121l499 492h-647z" />
<glyph d="M43 190v119l696 940h156v-909h192v-150h-192v-374h-180v374h-672zM250 340h465v639z" />
<glyph d="M119 -10q168 -53 364 -53q212 0 291 79q68 68 68 203q0 118 -66 184q-49 49 -187.5 69t-416.5 20v757h791v-149h-621v-457q253 -4 385.5 -33.5t196.5 -93.5q100 -103 100 -297q0 -110 -24.5 -183.5t-81.5 -131.5q-119 -119 -435 -119q-221 0 -364 57v148z" />
<glyph d="M82 440v2q0 144 50 271t198 297l354 424h217l-442 -516q-3 -4 -9.5 -11.5t-9.5 -11.5q55 12 119 12q250 0 359 -112q116 -116 116 -355q0 -242 -116 -358q-110 -113 -359 -113q-250 0 -360 113q-117 117 -117 358zM270 444q0 -185 74 -256q69 -69 215 -69q144 0 213 69 q74 71 74 256q0 178 -76 254q-67 70 -211 70q-146 0 -213 -70q-76 -76 -76 -254z" />
<glyph d="M98 1100v149h926v-119l-717 -1314h-201l705 1284h-713z" />
<glyph d="M78 375q0 180 96 276q61 61 170 82q-93 21 -147 78q-88 88 -88 268q0 185 96 281q104 104 354 104q245 0 352 -104q97 -97 97 -281q0 -180 -88 -268q-53 -56 -146 -78q111 -22 168 -82q96 -93 96 -276q0 -189 -104 -293q-110 -113 -375 -113q-267 0 -377 113 q-104 104 -104 293zM266 391q0 -137 70 -207q62 -65 223 -65q156 0 221 65q70 70 70 207q0 135 -70 205q-66 66 -221 66q-157 0 -223 -66q-70 -70 -70 -205zM297 1055q0 -139 61 -197q56 -59 201 -59q142 0 201 59t59 197q0 141 -59 200q-60 60 -201 60q-144 0 -201 -60 q-61 -58 -61 -200z" />
<glyph d="M82 809q0 241 117 358q110 113 360 113q249 0 359 -113q116 -116 116 -358v-2q0 -94 -17 -170t-73.5 -178t-157.5 -219l-354 -424h-217l442 516q3 4 9.5 11t9.5 11q-56 -12 -117 -12q-250 0 -360 113q-117 117 -117 354zM270 805q0 -178 76 -254q67 -70 213 -70 q144 0 211 70q76 76 76 254q0 182 -74 256q-69 69 -213 69q-146 0 -215 -69q-74 -74 -74 -256z" />
<glyph horiz-adv-x="679" d="M35 1024q0 135 17 223.5t65 136.5q35 33 96.5 50.5t126.5 17.5q66 0 128 -17.5t97 -50.5q48 -48 65 -136.5t17 -223.5q0 -155 -16.5 -252.5t-67.5 -148.5q-33 -33 -94.5 -49.5t-128.5 -16.5q-66 0 -127 16.5t-96 49.5q-49 51 -65.5 148.5t-16.5 252.5zM168 1024 q0 -274 51 -322q33 -38 121 -38q87 0 123 36q51 51 51 324q0 228 -51 276q-37 37 -123 37q-87 0 -121 -37q-51 -48 -51 -276z" />
<glyph horiz-adv-x="679" d="M104 1081v150l271 203h106v-861h-129v695z" />
<glyph horiz-adv-x="681" d="M59 573v84l291 287q80 83 102.5 133t22.5 123q0 66 -35 105q-36 36 -153 36q-103 0 -215 -38v108q96 41 231 41q178 0 248 -70q30 -30 41.5 -70t11.5 -104q0 -101 -30.5 -163.5t-122.5 -157.5l-211 -205h370v-109h-551z" />
<glyph horiz-adv-x="679" d="M57 1325v109h547v-84l-291 -285q186 -11 250 -72q64 -67 64 -176q0 -66 -15.5 -109.5t-50.5 -80.5q-72 -72 -272 -72q-139 0 -223 37v104q105 -30 221 -30q132 0 172 43q39 39 39 108q0 65 -37 98q-27 27 -100 38.5t-216 11.5v90l281 270h-369z" />
<glyph horiz-adv-x="677" d="M29 793v81l407 560h119v-533h109v-108h-109v-220h-131v220h-395zM172 901h252v352z" />
<glyph horiz-adv-x="679" d="M72 592v104q105 -30 223 -30q121 0 164 43q37 41 37 110q0 64 -37 101q-27 27 -107 38t-248 11v465h484v-109h-365v-246q153 -4 230 -22.5t114 -55.5q60 -60 60 -182q0 -66 -15.5 -110.5t-50.5 -81.5q-72 -72 -266 -72q-139 0 -223 37z" />
<glyph horiz-adv-x="681" d="M49 842q0 87 32 166.5t124 185.5l203 240h151l-266 -308l-6 -6q36 4 55 4q154 0 221 -67q70 -70 70 -215q0 -152 -70 -219q-68 -68 -221 -68t-221 68q-72 69 -72 219zM184 844q0 -103 41 -144q36 -36 117 -36q78 0 117 36q39 42 39 144q0 99 -39 141q-42 39 -117 39 q-78 0 -117 -39q-41 -41 -41 -141z" />
<glyph horiz-adv-x="679" d="M55 1325v109h572v-84l-422 -777h-144l410 752h-416z" />
<glyph horiz-adv-x="677" d="M45 799q0 109 57 166q34 34 99 47q-55 16 -86 47q-52 52 -52 160q0 107 58 165q64 64 219 64t219 -64q57 -57 57 -165q0 -107 -53 -160q-31 -31 -84 -47q65 -13 99 -47q57 -57 57 -166q0 -114 -62 -176q-71 -68 -233 -68q-163 0 -231 68q-64 64 -64 176zM180 813 q0 -74 39 -113q36 -36 121 -36t121 36q37 37 37 113t-37 113t-121 37t-121 -37q-39 -39 -39 -113zM199 1198q0 -80 32 -108q30 -33 109 -33q81 0 111 33q28 28 28 108q0 78 -30 113q-30 30 -109 30t-109 -30q-32 -37 -32 -113z" />
<glyph horiz-adv-x="681" d="M49 1157q0 150 72 219q68 68 221 68t221 -68q70 -67 70 -219v-2q0 -87 -31 -166t-125 -184l-203 -240h-149l266 307l6 7q-45 -5 -55 -5q-153 0 -221 68q-72 72 -72 215zM184 1155q0 -100 41 -141q39 -39 117 -39q75 0 117 39q39 42 39 141q0 101 -39 143q-40 37 -117 37 q-80 0 -117 -37q-41 -41 -41 -143z" />
<glyph horiz-adv-x="681" d="M35 451q0 135 17 223.5t65 136.5q35 33 96.5 50.5t126.5 17.5q66 0 128 -17.5t97 -50.5q48 -48 65 -136.5t17 -223.5q0 -155 -16.5 -253t-67.5 -149q-65 -65 -223 -65q-155 0 -223 65q-49 51 -65.5 149t-16.5 253zM168 451q0 -274 51 -322q34 -39 121 -39q86 0 123 37 q51 51 51 324q0 228 -51 276q-37 37 -123 37q-87 0 -121 -37q-51 -48 -51 -276z" />
<glyph horiz-adv-x="679" d="M104 508v149l271 203h106v-860h-129v694z" />
<glyph horiz-adv-x="681" d="M59 0v84l291 287q80 83 102.5 133t22.5 123q0 65 -35 104q-37 37 -153 37q-100 0 -215 -39v109q96 41 231 41q178 0 248 -70q30 -30 41.5 -70t11.5 -104q0 -101 -30.5 -164t-122.5 -158l-211 -204h370v-109h-551z" />
<glyph horiz-adv-x="681" d="M57 752v108h547v-84l-291 -284q186 -11 250 -72q64 -67 64 -176q0 -66 -15.5 -110t-50.5 -81q-71 -71 -272 -71q-141 0 -223 36v105q109 -31 221 -31q132 0 172 43q39 39 39 109q0 65 -37 98q-26 26 -99 37.5t-217 11.5v90l281 271h-369z" />
<glyph horiz-adv-x="679" d="M29 219v82l407 559h119v-532h109v-109h-109v-219h-131v219h-395zM172 328h252v352z" />
<glyph horiz-adv-x="681" d="M72 18v105q108 -31 223 -31q121 0 164 43q37 41 37 111q0 63 -37 100q-27 27 -107 38t-248 11v465h484v-108h-365v-246q153 -4 230 -22.5t114 -55.5q60 -60 60 -182q0 -124 -66 -193q-71 -71 -266 -71q-141 0 -223 36z" />
<glyph horiz-adv-x="681" d="M49 268q0 87 32 167t124 186l203 239h151l-266 -307l-6 -6q36 4 55 4q153 0 221 -68q70 -70 70 -215q0 -152 -70 -219q-67 -67 -221 -67t-221 67q-72 69 -72 219zM184 270q0 -102 41 -143q37 -37 117 -37q77 0 117 37q39 42 39 143q0 100 -39 142q-42 39 -117 39 q-78 0 -117 -39q-41 -41 -41 -142z" />
<glyph horiz-adv-x="679" d="M55 752v108h572v-84l-422 -776h-144l410 752h-416z" />
<glyph horiz-adv-x="679" d="M45 225q0 109 57 166q34 34 99 47q-55 16 -86 47q-52 52 -52 160t58 166q63 63 219 63t219 -63q57 -57 57 -166q0 -107 -53 -160q-31 -31 -84 -47q65 -13 99 -47q57 -57 57 -166q0 -114 -62 -176q-70 -67 -233 -67q-164 0 -231 67q-64 64 -64 176zM180 240q0 -74 39 -113 q37 -37 121 -37t121 37t37 113q0 75 -37 112t-121 37t-121 -37q-39 -39 -39 -112zM199 625q0 -81 32 -109q30 -33 109 -33q81 0 111 33q28 28 28 109q0 77 -30 112q-31 31 -109 31t-109 -31q-32 -37 -32 -112z" />
<glyph horiz-adv-x="681" d="M49 584q0 150 72 219q67 67 221 67t221 -67q70 -67 70 -219v-2q0 -87 -31.5 -166.5t-124.5 -184.5l-203 -239h-149l266 307l6 6q-36 -4 -55 -4q-153 0 -221 68q-72 72 -72 215zM184 582q0 -101 41 -142q39 -39 117 -39q75 0 117 39q39 42 39 142q0 101 -39 143 q-40 37 -117 37q-80 0 -117 -37q-41 -41 -41 -143z" />
<glyph horiz-adv-x="1703" d="M123 717q0 201 47 345t129 228q87 87 230 130.5t323 43.5t323 -43.5t230 -130.5q82 -84 129 -228t47 -345t-47 -345.5t-129 -228.5q-87 -87 -230 -130.5t-323 -43.5t-323 43.5t-230 130.5q-82 84 -129 228.5t-47 345.5zM231 717q0 -177 40 -308.5t106 -195.5 q70 -70 194.5 -105.5t280.5 -35.5q155 0 280 35.5t193 105.5q66 65 107 196.5t41 307.5t-41 307.5t-107 196.5q-69 69 -194.5 105t-278.5 36t-279 -36t-196 -105q-65 -65 -105.5 -196.5t-40.5 -307.5zM547 739q0 135 17 224t65 137q35 33 96.5 50t126.5 17q67 0 128.5 -17 t96.5 -50q48 -48 65 -137t17 -224q0 -155 -16.5 -252.5t-67.5 -148.5q-33 -33 -94.5 -49.5t-128.5 -16.5q-66 0 -127 16.5t-96 49.5q-49 51 -65.5 148.5t-16.5 252.5zM680 739q0 -273 51 -321q34 -39 121 -39q86 0 123 37q51 51 51 323q0 229 -51 277q-37 37 -123 37 q-87 0 -121 -37q-51 -48 -51 -277z" />
<glyph horiz-adv-x="1703" d="M123 717q0 201 47 345t129 228q87 87 230 130.5t323 43.5t323 -43.5t230 -130.5q82 -84 129 -228t47 -345t-47 -345.5t-129 -228.5q-87 -87 -230 -130.5t-323 -43.5t-323 43.5t-230 130.5q-82 84 -129 228.5t-47 345.5zM231 717q0 -177 40 -308.5t106 -195.5 q70 -70 194.5 -105.5t280.5 -35.5q155 0 280 35.5t193 105.5q66 65 107 196.5t41 307.5t-41 307.5t-107 196.5q-69 69 -194.5 105t-278.5 36t-279 -36t-196 -105q-65 -65 -105.5 -196.5t-40.5 -307.5zM594 797v149l270 203h107v-860h-129v694z" />
<glyph horiz-adv-x="1703" d="M123 717q0 201 47 345t129 228q87 87 230 130.5t323 43.5t323 -43.5t230 -130.5q82 -84 129 -228t47 -345t-47 -345.5t-129 -228.5q-87 -87 -230 -130.5t-323 -43.5t-323 43.5t-230 130.5q-82 84 -129 228.5t-47 345.5zM231 717q0 -177 40 -308.5t106 -195.5 q70 -70 194.5 -105.5t280.5 -35.5q155 0 280 35.5t193 105.5q66 65 107 196.5t41 307.5t-41 307.5t-107 196.5q-69 69 -194.5 105t-278.5 36t-279 -36t-196 -105q-65 -65 -105.5 -196.5t-40.5 -307.5zM571 289v84l291 286q80 83 102.5 133t22.5 123q0 66 -35 105 q-37 37 -153 37q-100 0 -215 -39v108q96 41 231 41q179 0 248 -69q30 -30 41.5 -70t11.5 -104q0 -101 -30.5 -164t-122.5 -158l-211 -205h370v-108h-551z" />
<glyph horiz-adv-x="1703" d="M123 717q0 201 47 345t129 228q87 87 230 130.5t323 43.5t323 -43.5t230 -130.5q82 -84 129 -228t47 -345t-47 -345.5t-129 -228.5q-87 -87 -230 -130.5t-323 -43.5t-323 43.5t-230 130.5q-82 84 -129 228.5t-47 345.5zM231 717q0 -177 40 -308.5t106 -195.5 q70 -70 194.5 -105.5t280.5 -35.5q155 0 280 35.5t193 105.5q66 65 107 196.5t41 307.5t-41 307.5t-107 196.5q-69 69 -194.5 105t-278.5 36t-279 -36t-196 -105q-65 -65 -105.5 -196.5t-40.5 -307.5zM569 1040v109h547v-84l-291 -285q187 -11 250 -71q64 -67 64 -177 q0 -66 -15.5 -109.5t-50.5 -80.5q-72 -72 -272 -72q-139 0 -223 37v105q108 -31 221 -31q132 0 172 43q39 39 39 108q0 66 -37 99q-26 26 -99 37.5t-217 11.5v90l281 270h-369z" />
<glyph horiz-adv-x="1703" d="M123 717q0 201 47 345t129 228q87 87 230 130.5t323 43.5t323 -43.5t230 -130.5q82 -84 129 -228t47 -345t-47 -345.5t-129 -228.5q-87 -87 -230 -130.5t-323 -43.5t-323 43.5t-230 130.5q-82 84 -129 228.5t-47 345.5zM231 717q0 -177 40 -308.5t106 -195.5 q70 -70 194.5 -105.5t280.5 -35.5q155 0 280 35.5t193 105.5q66 65 107 196.5t41 307.5t-41 307.5t-107 196.5q-69 69 -194.5 105t-278.5 36t-279 -36t-196 -105q-65 -65 -105.5 -196.5t-40.5 -307.5zM500 508v82l407 559h119v-533h109v-108h-109v-219h-131v219h-395z M643 616h252v353z" />
<glyph horiz-adv-x="1703" d="M123 717q0 201 47 345t129 228q87 87 230 130.5t323 43.5t323 -43.5t230 -130.5q82 -84 129 -228t47 -345t-47 -345.5t-129 -228.5q-87 -87 -230 -130.5t-323 -43.5t-323 43.5t-230 130.5q-82 84 -129 228.5t-47 345.5zM231 717q0 -177 40 -308.5t106 -195.5 q70 -70 194.5 -105.5t280.5 -35.5q155 0 280 35.5t193 105.5q66 65 107 196.5t41 307.5t-41 307.5t-107 196.5q-69 69 -194.5 105t-278.5 36t-279 -36t-196 -105q-65 -65 -105.5 -196.5t-40.5 -307.5zM584 307v105q109 -31 223 -31q121 0 164 43q37 41 37 111q0 63 -37 100 q-27 27 -107 38t-248 11v465h484v-109h-365v-245q153 -4 230 -22.5t114 -55.5q60 -60 60 -182q0 -124 -66 -193q-72 -72 -266 -72q-139 0 -223 37z" />
<glyph horiz-adv-x="1703" d="M123 717q0 201 47 345t129 228q87 87 230 130.5t323 43.5t323 -43.5t230 -130.5q82 -84 129 -228t47 -345t-47 -345.5t-129 -228.5q-87 -87 -230 -130.5t-323 -43.5t-323 43.5t-230 130.5q-82 84 -129 228.5t-47 345.5zM231 717q0 -177 40 -308.5t106 -195.5 q70 -70 194.5 -105.5t280.5 -35.5q155 0 280 35.5t193 105.5q66 65 107 196.5t41 307.5t-41 307.5t-107 196.5q-69 69 -194.5 105t-278.5 36t-279 -36t-196 -105q-65 -65 -105.5 -196.5t-40.5 -307.5zM541 557q0 87 31.5 167t123.5 185l203 240h152l-267 -307l-6 -6 q36 4 56 4q153 0 221 -68q69 -69 69 -215q0 -153 -69 -219q-68 -68 -221 -68q-154 0 -222 68q-71 68 -71 219zM676 559q0 -102 41 -143q37 -37 117 -37q76 0 116 37q39 42 39 143q0 99 -39 141q-42 39 -116 39q-78 0 -117 -39q-41 -41 -41 -141z" />
<glyph horiz-adv-x="1703" d="M123 717q0 201 47 345t129 228q87 87 230 130.5t323 43.5t323 -43.5t230 -130.5q82 -84 129 -228t47 -345t-47 -345.5t-129 -228.5q-87 -87 -230 -130.5t-323 -43.5t-323 43.5t-230 130.5q-82 84 -129 228.5t-47 345.5zM231 717q0 -177 40 -308.5t106 -195.5 q70 -70 194.5 -105.5t280.5 -35.5q155 0 280 35.5t193 105.5q66 65 107 196.5t41 307.5t-41 307.5t-107 196.5q-69 69 -194.5 105t-278.5 36t-279 -36t-196 -105q-65 -65 -105.5 -196.5t-40.5 -307.5zM580 1040v109h571v-84l-422 -776h-143l409 751h-415z" />
<glyph horiz-adv-x="1703" d="M123 717q0 201 47 345t129 228q87 87 230 130.5t323 43.5t323 -43.5t230 -130.5q82 -84 129 -228t47 -345t-47 -345.5t-129 -228.5q-87 -87 -230 -130.5t-323 -43.5t-323 43.5t-230 130.5q-82 84 -129 228.5t-47 345.5zM231 717q0 -177 40 -308.5t106 -195.5 q70 -70 194.5 -105.5t280.5 -35.5q155 0 280 35.5t193 105.5q66 65 107 196.5t41 307.5t-41 307.5t-107 196.5q-69 69 -194.5 105t-278.5 36t-279 -36t-196 -105q-65 -65 -105.5 -196.5t-40.5 -307.5zM557 514q0 109 57 166q34 34 99 47q-55 16 -86 47q-52 52 -52 160 t58 166q63 63 219 63t219 -63q57 -57 57 -166q0 -107 -53 -160q-31 -31 -84 -47q65 -13 99 -47q57 -57 57 -166q0 -114 -62 -176q-71 -68 -233 -68q-163 0 -231 68q-64 64 -64 176zM692 528q0 -73 39 -112q37 -37 121 -37t121 37t37 112q0 76 -37 113t-121 37t-121 -37 q-39 -39 -39 -113zM711 913q0 -80 32 -108q30 -33 109 -33q81 0 111 33q28 28 28 108q0 79 -30 113q-31 31 -109 31t-109 -31q-32 -37 -32 -113z" />
<glyph horiz-adv-x="1703" d="M123 717q0 201 47 345t129 228q87 87 230 130.5t323 43.5t323 -43.5t230 -130.5q82 -84 129 -228t47 -345t-47 -345.5t-129 -228.5q-87 -87 -230 -130.5t-323 -43.5t-323 43.5t-230 130.5q-82 84 -129 228.5t-47 345.5zM231 717q0 -177 40 -308.5t106 -195.5 q70 -70 194.5 -105.5t280.5 -35.5q155 0 280 35.5t193 105.5q66 65 107 196.5t41 307.5t-41 307.5t-107 196.5q-69 69 -194.5 105t-278.5 36t-279 -36t-196 -105q-65 -65 -105.5 -196.5t-40.5 -307.5zM571 872q0 151 72 220q67 67 221 67t221 -67q70 -67 70 -220v-2 q0 -87 -31 -166t-125 -184l-202 -239h-150l266 307l7 6q-36 -4 -56 -4q-154 0 -221 67q-72 72 -72 215zM707 870q0 -100 41 -141q39 -39 116 -39q75 0 117 39q39 42 39 141q0 102 -39 144q-40 37 -117 37q-79 0 -116 -37q-41 -41 -41 -144z" />
</font>
</defs>
</svg>
